<svg xmlns="http://www.w3.org/2000/svg" width="20" height="20" fill="none" viewBox="0 0 20 20"><path fill="#B49C5D" stroke="#B49C5D" stroke-width=".3" d="M8.52734 0.849609C12.7558 0.849609 16.2051 4.17258 16.2051 8.26758C16.2051 9.97332 15.5975 11.6112 14.4912 12.9297L18.833 17.2891L18.9092 17.374C19.2411 17.7835 19.2287 18.3675 18.8809 18.7637L18.8008 18.8457C18.5889 19.0424 18.3104 19.1504 18.0186 19.1504C17.7487 19.1503 17.4931 19.0591 17.2891 18.8916L17.2051 18.8154L12.8184 14.4121C11.547 15.2452 10.0725 15.6846 8.52734 15.6846C4.29902 15.6845 0.849657 12.3625 0.849609 8.26758C0.849609 4.17263 4.29899 0.849701 8.52734 0.849609ZM8.52734 3.0459C5.5373 3.04599 3.11328 5.39343 3.11328 8.26758C3.11333 11.1417 5.53733 13.4892 8.52734 13.4893C11.5174 13.4893 13.9414 11.1417 13.9414 8.26758C13.9414 5.39337 11.5175 3.0459 8.52734 3.0459Z"/></svg>