<svg xmlns="http://www.w3.org/2000/svg" width="24" height="18" fill="none" viewBox="0 0 24 18"><path fill="#fff" d="M3.95894 0.955608C4.31231 0.889001 4.69317 1.05182 4.87378 1.34785C5.07403 1.65868 5.01906 2.09533 4.74029 2.35066C4.12384 2.93162 3.58593 3.58659 3.1501 4.29706C2.0782 6.03995 1.62666 8.11587 1.8858 10.1141C2.13709 12.1678 3.13439 14.129 4.67746 15.5981C4.85023 15.7461 4.9798 15.9533 4.99158 16.179C5.01906 16.4677 4.86593 16.7637 4.60679 16.9228C4.31231 17.1152 3.88826 17.1078 3.60163 16.9043C3.46028 16.8044 3.34642 16.6749 3.2247 16.5565C2.13316 15.4649 1.28506 14.1586 0.751076 12.7451C0.142485 11.1391 -0.0616868 9.39991 0.146412 7.70513C0.444817 5.24067 1.662 2.87981 3.54666 1.14803C3.66053 1.04812 3.80581 0.98151 3.95894 0.955608Z"/><path fill="#fff" d="M19.3152 0.955487C19.594 0.903681 19.8924 0.988791 20.0926 1.17751C21.035 2.06561 21.8163 3.09802 22.3896 4.23404C23.1238 5.68089 23.5165 7.28316 23.5322 8.88543C23.5714 11.3388 22.7037 13.7922 21.1096 15.7349C20.8072 16.1012 20.4814 16.4527 20.1398 16.7821C19.8767 17.0633 19.4055 17.1447 19.06 16.956C18.8009 16.8228 18.6242 16.5601 18.6085 16.2825C18.5888 16.042 18.6949 15.7978 18.8833 15.6313C19.7511 14.8061 20.4578 13.8366 20.9525 12.7709C21.6632 11.2352 21.9341 9.5145 21.7103 7.85302C21.4512 5.80301 20.446 3.8418 18.8951 2.38014C18.6909 2.20252 18.5771 1.93239 18.6124 1.66966C18.6438 1.32183 18.9461 1.01839 19.3152 0.955487Z"/><path fill="#fff" d="M7.02159 3.84178C7.35533 3.77888 7.71656 3.92319 7.90503 4.18962C8.13276 4.49675 8.09742 4.9482 7.81864 5.21833C7.39459 5.62167 7.02944 6.08052 6.75852 6.58748C6.0714 7.84561 5.95754 9.36648 6.44048 10.7097C6.69177 11.4165 7.10797 12.0715 7.64588 12.6191C7.75582 12.7375 7.88932 12.8412 7.96392 12.9855C8.12098 13.2704 8.07779 13.6367 7.85791 13.881C7.62233 14.1585 7.18257 14.2584 6.83705 14.1141C6.60146 14.0216 6.44441 13.8218 6.27165 13.6478C5.19189 12.5155 4.52833 11.0391 4.41447 9.51819C4.25349 7.60879 4.97594 5.65498 6.36981 4.25993C6.5465 4.06751 6.75067 3.88249 7.02159 3.84178Z"/><path fill="#fff" d="M16.127 3.87136C16.3626 3.79365 16.6335 3.81585 16.8495 3.93426C17.0379 4.03417 17.1675 4.20069 17.3128 4.34501C18.3611 5.44032 19.0208 6.85757 19.166 8.32663C19.3702 10.2138 18.7106 12.1639 17.3756 13.5849C17.1793 13.7847 17.0026 14.0252 16.7199 14.1214C16.3783 14.2436 15.9582 14.1399 15.7344 13.8661C15.4634 13.559 15.4831 13.0668 15.7815 12.7856C16.2173 12.3675 16.5942 11.8938 16.8652 11.3684C17.4581 10.2582 17.6073 8.9446 17.2931 7.73827C17.0536 6.80207 16.5314 5.93248 15.8129 5.2479C15.6244 5.08138 15.5223 4.83346 15.542 4.59293C15.5616 4.271 15.805 3.97497 16.127 3.87136Z"/><path fill="#fff" d="M10.0134 6.36545C10.1469 6.30995 10.304 6.32845 10.4217 6.40986C11.6664 7.17584 12.9111 7.93442 14.1557 8.7004C14.3796 8.83731 14.3717 9.18515 14.14 9.31096C12.8836 10.0806 11.6311 10.8503 10.3746 11.6163C10.1273 11.7717 9.76211 11.5645 9.78174 11.287C9.77782 9.76981 9.78174 8.25635 9.78174 6.73919C9.76996 6.58377 9.86027 6.42836 10.0134 6.36545Z"/></svg>