<svg width="26" height="24" viewBox="0 0 26 24" fill="none" xmlns="http://www.w3.org/2000/svg">
<path d="M4.95894 3.95561C5.31231 3.889 5.69317 4.05182 5.87378 4.34785C6.07403 4.65868 6.01906 5.09533 5.74029 5.35066C5.12384 5.93162 4.58593 6.58659 4.1501 7.29706C3.0782 9.03995 2.62666 11.1159 2.8858 13.1141C3.13709 15.1678 4.13439 17.129 5.67746 18.5981C5.85023 18.7461 5.9798 18.9533 5.99158 19.179C6.01906 19.4677 5.86593 19.7637 5.60679 19.9228C5.31231 20.1152 4.88826 20.1078 4.60163 19.9043C4.46028 19.8044 4.34642 19.6749 4.2247 19.5565C3.13316 18.4649 2.28506 17.1586 1.75108 15.7451C1.14249 14.1391 0.938313 12.3999 1.14641 10.7051C1.44482 8.24067 2.662 5.87981 4.54666 4.14803C4.66053 4.04812 4.80581 3.98151 4.95894 3.95561Z" fill="#B49C5D"/>
<path d="M20.3152 3.95549C20.594 3.90368 20.8924 3.98879 21.0926 4.17751C22.035 5.06561 22.8163 6.09802 23.3896 7.23404C24.1238 8.68089 24.5165 10.2832 24.5322 11.8854C24.5714 14.3388 23.7037 16.7922 22.1096 18.7349C21.8072 19.1012 21.4814 19.4527 21.1398 19.7821C20.8767 20.0633 20.4055 20.1447 20.06 19.956C19.8009 19.8228 19.6242 19.5601 19.6085 19.2825C19.5888 19.042 19.6949 18.7978 19.8833 18.6313C20.7511 17.8061 21.4578 16.8366 21.9525 15.7709C22.6632 14.2352 22.9341 12.5145 22.7103 10.853C22.4512 8.80301 21.446 6.8418 19.8951 5.38014C19.6909 5.20252 19.5771 4.93239 19.6124 4.66966C19.6438 4.32183 19.9461 4.01839 20.3152 3.95549Z" fill="#B49C5D"/>
<path d="M8.02159 6.84178C8.35533 6.77888 8.71656 6.92319 8.90503 7.18962C9.13276 7.49675 9.09742 7.9482 8.81864 8.21833C8.39459 8.62167 8.02944 9.08052 7.75852 9.58748C7.0714 10.8456 6.95754 12.3665 7.44048 13.7097C7.69177 14.4165 8.10797 15.0715 8.64588 15.6191C8.75582 15.7375 8.88932 15.8412 8.96392 15.9855C9.12098 16.2704 9.07779 16.6367 8.85791 16.881C8.62233 17.1585 8.18257 17.2584 7.83705 17.1141C7.60146 17.0216 7.44441 16.8218 7.27165 16.6478C6.19189 15.5155 5.52833 14.0391 5.41447 12.5182C5.25349 10.6088 5.97594 8.65498 7.36981 7.25993C7.5465 7.06751 7.75067 6.88249 8.02159 6.84178Z" fill="#B49C5D"/>
<path d="M17.127 6.87136C17.3626 6.79365 17.6335 6.81585 17.8495 6.93426C18.0379 7.03417 18.1675 7.20069 18.3128 7.34501C19.3611 8.44032 20.0208 9.85757 20.166 11.3266C20.3702 13.2138 19.7106 15.1639 18.3756 16.5849C18.1793 16.7847 18.0026 17.0252 17.7199 17.1214C17.3783 17.2436 16.9582 17.1399 16.7344 16.8661C16.4634 16.559 16.4831 16.0668 16.7815 15.7856C17.2173 15.3675 17.5942 14.8938 17.8652 14.3684C18.4581 13.2582 18.6073 11.9446 18.2931 10.7383C18.0536 9.80207 17.5314 8.93248 16.8129 8.2479C16.6244 8.08138 16.5223 7.83346 16.542 7.59293C16.5616 7.271 16.805 6.97497 17.127 6.87136Z" fill="#B49C5D"/>
<path d="M11.0134 9.36545C11.1469 9.30995 11.304 9.32845 11.4217 9.40986C12.6664 10.1758 13.9111 10.9344 15.1557 11.7004C15.3796 11.8373 15.3717 12.1852 15.14 12.311C13.8836 13.0806 12.6311 13.8503 11.3746 14.6163C11.1273 14.7717 10.7621 14.5645 10.7817 14.287C10.7778 12.7698 10.7817 11.2564 10.7817 9.73919C10.77 9.58377 10.8603 9.42836 11.0134 9.36545Z" fill="#B49C5D"/>
</svg>
