<svg width="24" height="44" viewBox="0 0 24 44" fill="none" xmlns="http://www.w3.org/2000/svg">
<path d="M3.701 39.172H5.816V40H2.675V33.745H3.701V39.172ZM7.19602 34.384C7.01002 34.384 6.85402 34.321 6.72802 34.195C6.60202 34.069 6.53902 33.913 6.53902 33.727C6.53902 33.541 6.60202 33.385 6.72802 33.259C6.85402 33.133 7.01002 33.07 7.19602 33.07C7.37602 33.07 7.52902 33.133 7.65502 33.259C7.78102 33.385 7.84402 33.541 7.84402 33.727C7.84402 33.913 7.78102 34.069 7.65502 34.195C7.52902 34.321 7.37602 34.384 7.19602 34.384ZM7.70002 35.041V40H6.67402V35.041H7.70002ZM10.9641 39.082L12.3681 35.041H13.4571L11.5671 40H10.3431L8.46207 35.041H9.56007L10.9641 39.082ZM18.7776 37.399C18.7776 37.585 18.7656 37.753 18.7416 37.903H14.9526C14.9826 38.299 15.1296 38.617 15.3936 38.857C15.6576 39.097 15.9816 39.217 16.3656 39.217C16.9176 39.217 17.3076 38.986 17.5356 38.524H18.6426C18.4926 38.98 18.2196 39.355 17.8236 39.649C17.4336 39.937 16.9476 40.081 16.3656 40.081C15.8916 40.081 15.4656 39.976 15.0876 39.766C14.7156 39.55 14.4216 39.25 14.2056 38.866C13.9956 38.476 13.8906 38.026 13.8906 37.516C13.8906 37.006 13.9926 36.559 14.1966 36.175C14.4066 35.785 14.6976 35.485 15.0696 35.275C15.4476 35.065 15.8796 34.96 16.3656 34.96C16.8336 34.96 17.2506 35.062 17.6166 35.266C17.9826 35.47 18.2676 35.758 18.4716 36.13C18.6756 36.496 18.7776 36.919 18.7776 37.399ZM17.7066 37.075C17.7006 36.697 17.5656 36.394 17.3016 36.166C17.0376 35.938 16.7106 35.824 16.3206 35.824C15.9666 35.824 15.6636 35.938 15.4116 36.166C15.1596 36.388 15.0096 36.691 14.9616 37.075H17.7066Z" fill="#B49C5D"/>
<path d="M4.64901 3.95561C4.9803 3.889 5.33735 4.05182 5.50668 4.34785C5.69441 4.65868 5.64288 5.09533 5.38153 5.35066C4.80361 5.93162 4.29932 6.58659 3.89073 7.29706C2.88582 9.03995 2.4625 11.1159 2.70545 13.1141C2.94103 15.1678 3.876 17.129 5.32263 18.5981C5.48459 18.7461 5.60607 18.9533 5.61711 19.179C5.64288 19.4677 5.49932 19.7637 5.25637 19.9228C4.9803 20.1152 4.58275 20.1078 4.31404 19.9043C4.18152 19.8044 4.07478 19.6749 3.96066 19.5565C2.93735 18.4649 2.14226 17.1586 1.64164 15.7451C1.07109 14.1391 0.879676 12.3999 1.07477 10.7051C1.35452 8.24067 2.49563 5.87981 4.26251 4.14803C4.36925 4.04812 4.50545 3.98151 4.64901 3.95561Z" fill="#B49C5D"/>
<path d="M19.0455 3.95549C19.3069 3.90368 19.5866 3.98879 19.7744 4.17751C20.6578 5.06561 21.3903 6.09802 21.9277 7.23404C22.6161 8.68089 22.9842 10.2832 22.9989 11.8854C23.0357 14.3388 22.2222 16.7922 20.7277 18.7349C20.4443 19.1012 20.1388 19.4527 19.8185 19.7821C19.5719 20.0633 19.1302 20.1447 18.8063 19.956C18.5633 19.8228 18.3977 19.5601 18.3829 19.2825C18.3645 19.042 18.4639 18.7978 18.6406 18.6313C19.4541 17.8061 20.1167 16.8366 20.5805 15.7709C21.2468 14.2352 21.5007 12.5145 21.2909 10.853C21.048 8.80301 20.1056 6.8418 18.6517 5.38014C18.4602 5.20252 18.3535 4.93239 18.3866 4.66966C18.4161 4.32183 18.6995 4.01839 19.0455 3.95549Z" fill="#B49C5D"/>
<path d="M7.52025 6.84178C7.83314 6.77888 8.17179 6.92319 8.34847 7.18962C8.56197 7.49675 8.52884 7.9482 8.26749 8.21833C7.86995 8.62167 7.52761 9.08052 7.27363 9.58748C6.62945 10.8456 6.5227 12.3665 6.97547 13.7097C7.21105 14.4165 7.60123 15.0715 8.10553 15.6191C8.2086 15.7375 8.33375 15.8412 8.40369 15.9855C8.55093 16.2704 8.51044 16.6367 8.3043 16.881C8.08344 17.1585 7.67117 17.2584 7.34725 17.1141C7.12639 17.0216 6.97915 16.8218 6.81718 16.6478C5.80491 15.5155 5.18283 14.0391 5.07608 12.5182C4.92516 10.6088 5.60246 8.65498 6.90921 7.25993C7.07485 7.06751 7.26626 6.88249 7.52025 6.84178Z" fill="#B49C5D"/>
<path d="M16.0566 6.87136C16.2774 6.79365 16.5314 6.81585 16.7339 6.93426C16.9106 7.03417 17.032 7.20069 17.1682 7.34501C18.1511 8.44032 18.7695 9.85757 18.9057 11.3266C19.0971 13.2138 18.4787 15.1639 17.2271 16.5849C17.0431 16.7847 16.8774 17.0252 16.6124 17.1214C16.2922 17.2436 15.8983 17.1399 15.6885 16.8661C15.4345 16.559 15.4529 16.0668 15.7326 15.7856C16.1412 15.3675 16.4946 14.8938 16.7486 14.3684C17.3044 13.2582 17.4443 11.9446 17.1498 10.7383C16.9253 9.80207 16.4357 8.93248 15.7621 8.2479C15.5854 8.08138 15.4897 7.83346 15.5081 7.59293C15.5265 7.271 15.7547 6.97497 16.0566 6.87136Z" fill="#B49C5D"/>
<path d="M10.3251 9.36545C10.4502 9.30995 10.5975 9.32845 10.7079 9.40986C11.8748 10.1758 13.0417 10.9344 14.2085 11.7004C14.4183 11.8373 14.411 12.1852 14.1938 12.311C13.0159 13.0806 11.8416 13.8503 10.6637 14.6163C10.4318 14.7717 10.0895 14.5645 10.1079 14.287C10.1042 12.7698 10.1079 11.2564 10.1079 9.73919C10.0969 9.58377 10.1815 9.42836 10.3251 9.36545Z" fill="#B49C5D"/>
</svg>
