<?xml version="1.0" encoding="UTF-8"?>
<!DOCTYPE svg PUBLIC "-//W3C//DTD SVG 1.1//EN" "http://www.w3.org/Graphics/SVG/1.1/DTD/svg11.dtd">
<svg xmlns="http://www.w3.org/2000/svg" version="1.1" width="375px" height="330px" style="shape-rendering:geometricPrecision; text-rendering:geometricPrecision; image-rendering:optimizeQuality; fill-rule:evenodd; clip-rule:evenodd" xmlns:xlink="http://www.w3.org/1999/xlink">
<g><path style="opacity:0.765" fill="#655c3a" d="M 205.5,58.5 C 205.5,58.8333 205.5,59.1667 205.5,59.5C 194.146,59.3403 182.813,59.6736 171.5,60.5C 148.167,60.5 124.833,60.5 101.5,60.5C 101.823,67.0221 101.49,73.3554 100.5,79.5C 100.5,79.1667 100.5,78.8333 100.5,78.5C 100.5,71.8333 100.5,65.1667 100.5,58.5C 135.5,58.5 170.5,58.5 205.5,58.5 Z"/></g>
<g><path style="opacity:1" fill="#ae9b62" d="M 205.5,59.5 C 197.99,60.1666 190.323,60.8333 182.5,61.5C 183.025,62.1924 183.692,62.6924 184.5,63C 190.348,63.1728 196.015,63.6728 201.5,64.5C 179.833,64.5 158.167,64.5 136.5,64.5C 148.133,62.8368 159.799,61.5034 171.5,60.5C 182.813,59.6736 194.146,59.3403 205.5,59.5 Z"/></g>
<g><path style="opacity:1" fill="#b09e65" d="M 205.5,58.5 C 206.167,58.5 206.833,58.5 207.5,58.5C 214.454,60.1454 221.787,61.1454 229.5,61.5C 229.709,62.086 230.043,62.586 230.5,63C 224.251,63.8087 218.084,63.642 212,62.5C 210.052,63.1094 208.218,63.776 206.5,64.5C 204.833,64.5 203.167,64.5 201.5,64.5C 196.015,63.6728 190.348,63.1728 184.5,63C 183.692,62.6924 183.025,62.1924 182.5,61.5C 190.323,60.8333 197.99,60.1666 205.5,59.5C 205.5,59.1667 205.5,58.8333 205.5,58.5 Z"/></g>
<g><path style="opacity:1" fill="#988858" d="M 207.5,58.5 C 225.833,58.5 244.167,58.5 262.5,58.5C 262.5,70.1667 262.5,81.8333 262.5,93.5C 261.671,86.6787 261.171,79.6787 261,72.5C 260.667,79.8333 260.333,87.1667 260,94.5C 260.012,86.1543 258.845,78.1543 256.5,70.5C 256.5,69.8333 256.167,69.5 255.5,69.5C 255.737,68.209 255.404,67.209 254.5,66.5C 238.868,64.5152 222.868,63.8486 206.5,64.5C 208.218,63.776 210.052,63.1094 212,62.5C 218.084,63.642 224.251,63.8087 230.5,63C 230.043,62.586 229.709,62.086 229.5,61.5C 221.787,61.1454 214.454,60.1454 207.5,58.5 Z"/></g>
<g><path style="opacity:1" fill="#b09d63" d="M 171.5,60.5 C 159.799,61.5034 148.133,62.8368 136.5,64.5C 126.652,64.1729 116.986,64.5062 107.5,65.5C 105.833,65.5 104.167,65.5 102.5,65.5C 102.5,66.5 102.5,67.5 102.5,68.5C 103.833,68.5 105.167,68.5 106.5,68.5C 106.663,70.8568 106.497,73.1902 106,75.5C 105.667,75.1667 105.333,74.8333 105,74.5C 103.112,82.8626 98.612,84.6959 91.5,80C 94.4816,79.502 97.4816,79.3354 100.5,79.5C 101.49,73.3554 101.823,67.0221 101.5,60.5C 124.833,60.5 148.167,60.5 171.5,60.5 Z"/></g>
<g><path style="opacity:0.952" fill="#ae9d69" d="M 136.5,64.5 C 158.167,64.5 179.833,64.5 201.5,64.5C 203.167,64.5 204.833,64.5 206.5,64.5C 222.868,63.8486 238.868,64.5152 254.5,66.5C 205.833,66.5 157.167,66.5 108.5,66.5C 107.833,66.5 107.5,66.1667 107.5,65.5C 116.986,64.5062 126.652,64.1729 136.5,64.5 Z"/></g>
<g><path style="opacity:0.004" fill="#000000" d="M 295.5,65.5 C 296.833,66.1667 296.833,66.1667 295.5,65.5 Z"/></g>
<g><path style="opacity:1" fill="#b09e6b" d="M 107.5,65.5 C 107.5,66.1667 107.833,66.5 108.5,66.5C 108.5,70.5 108.5,74.5 108.5,78.5C 112.555,78.1758 116.555,78.5091 120.5,79.5C 121.374,81.7466 121.708,84.0799 121.5,86.5C 111.193,86.5442 101.193,86.5442 91.5,86.5C 90.0813,85.5489 88.4147,85.2155 86.5,85.5C 86.4606,84.4168 86.1272,83.4168 85.5,82.5C 87.1667,81.8333 88.8333,81.1667 90.5,80.5C 88.0312,79.8319 85.6979,79.1653 83.5,78.5C 89.1667,78.5 94.8333,78.5 100.5,78.5C 100.5,78.8333 100.5,79.1667 100.5,79.5C 97.4816,79.3354 94.4816,79.502 91.5,80C 98.612,84.6959 103.112,82.8626 105,74.5C 105.333,74.8333 105.667,75.1667 106,75.5C 106.497,73.1902 106.663,70.8568 106.5,68.5C 105.167,68.5 103.833,68.5 102.5,68.5C 102.5,67.5 102.5,66.5 102.5,65.5C 104.167,65.5 105.833,65.5 107.5,65.5 Z"/></g>
<g><path style="opacity:1" fill="#a18f5f" d="M 298.5,65.5 C 298.5,66.1667 298.5,66.8333 298.5,67.5C 297.826,69.0245 296.826,70.3578 295.5,71.5C 299.733,74.9954 299.066,77.4954 293.5,79C 294.428,79.3879 295.095,80.0546 295.5,81C 294.898,86.6453 294.231,92.1453 293.5,97.5C 293.666,92.1563 293.499,86.8229 293,81.5C 290.584,84.0884 288.084,86.4218 285.5,88.5C 282.607,88.9689 280.607,87.9689 279.5,85.5C 279.369,84.7611 279.536,84.0944 280,83.5C 286.697,77.9683 292.864,71.9683 298.5,65.5 Z"/></g>
<g><path style="opacity:1" fill="#9b8a59" d="M 298.5,67.5 C 299.497,88.3267 299.831,109.327 299.5,130.5C 297.843,117.525 296.843,104.192 296.5,90.5C 295.667,102.82 295.167,115.153 295,127.5C 294.617,128.056 294.117,128.389 293.5,128.5C 293.5,118.167 293.5,107.833 293.5,97.5C 294.231,92.1453 294.898,86.6453 295.5,81C 295.095,80.0546 294.428,79.3879 293.5,79C 299.066,77.4954 299.733,74.9954 295.5,71.5C 296.826,70.3578 297.826,69.0245 298.5,67.5 Z"/></g>
<g><path style="opacity:0.998" fill="#af9d67" d="M 156.5,79.5 C 168.292,85.2295 179.959,91.2295 191.5,97.5C 191.52,99.143 190.853,100.476 189.5,101.5C 190.09,102.799 191.09,103.632 192.5,104C 190.078,104.135 187.745,103.635 185.5,102.5C 176.378,98.4392 167.378,94.1058 158.5,89.5C 158.383,87.5165 159.05,85.8498 160.5,84.5C 160.167,83.5 159.5,82.8333 158.5,82.5C 157.416,83.6651 156.583,84.9984 156,86.5C 155.444,84.1152 155.61,81.7819 156.5,79.5 Z"/></g>
<g><path style="opacity:1" fill="#ab995e" d="M 154.5,78.5 C 155.167,78.8333 155.833,79.1667 156.5,79.5C 155.61,81.7819 155.444,84.1152 156,86.5C 156.583,84.9984 157.416,83.6651 158.5,82.5C 159.5,82.8333 160.167,83.5 160.5,84.5C 159.05,85.8498 158.383,87.5165 158.5,89.5C 157.833,102.006 157.167,114.673 156.5,127.5C 155.692,127.192 155.025,126.692 154.5,126C 154.184,115.183 154.517,104.516 155.5,94C 154.906,93.5357 154.239,93.369 153.5,93.5C 152.884,90.9195 152.551,88.2529 152.5,85.5C 152.529,82.7305 153.195,80.3972 154.5,78.5 Z"/></g>
<g><path style="opacity:1" fill="#b4a268" d="M 256.5,70.5 C 258.845,78.1543 260.012,86.1543 260,94.5C 260.333,87.1667 260.667,79.8333 261,72.5C 261.171,79.6787 261.671,86.6787 262.5,93.5C 262.842,94.3382 263.508,94.6716 264.5,94.5C 264.5,95.5 264.5,96.5 264.5,97.5C 260.758,98.2743 258.258,96.941 257,93.5C 256.5,85.8406 256.334,78.1739 256.5,70.5 Z"/></g>
<g><path style="opacity:0.998" fill="#b3a06d" d="M 279.5,85.5 C 280.607,87.9689 282.607,88.9689 285.5,88.5C 281.632,93.0307 277.632,97.5307 273.5,102C 269.848,102.499 266.182,102.665 262.5,102.5C 266.021,101.629 269.688,100.795 273.5,100C 272.624,98.4152 271.291,97.4152 269.5,97C 270.598,96.2303 270.598,95.397 269.5,94.5C 272.177,90.8618 275.51,87.8618 279.5,85.5 Z"/></g>
<g><path style="opacity:1" fill="#b09d62" d="M 105.5,93.5 C 106.151,109.203 105.484,124.536 103.5,139.5C 102.849,123.797 103.516,108.464 105.5,93.5 Z"/></g>
<g><path style="opacity:1" fill="#ae975e" d="M 107.5,91.5 C 107.5,104.167 107.5,116.833 107.5,129.5C 106.879,135.077 106.212,140.077 105.5,144.5C 105.169,142.678 104.502,141.011 103.5,139.5C 105.484,124.536 106.151,109.203 105.5,93.5C 105.5,92.1667 106.167,91.5 107.5,91.5 Z"/></g>
<g><path style="opacity:1" fill="#a18e5e" d="M 86.5,85.5 C 88.4147,85.2155 90.0813,85.5489 91.5,86.5C 90.5,86.5 89.5,86.5 88.5,86.5C 88.5,100.5 88.5,114.5 88.5,128.5C 88.1146,119.154 87.1146,109.821 85.5,100.5C 86.5748,97.562 86.7415,94.562 86,91.5C 84.9072,95.1688 84.0738,98.8355 83.5,102.5C 83.3339,96.8236 83.5006,91.1569 84,85.5C 84.7697,86.5981 85.603,86.5981 86.5,85.5 Z"/></g>
<g><path style="opacity:1" fill="#bca777" d="M 158.5,89.5 C 158.333,102.837 158.5,116.171 159,129.5C 159.383,128.944 159.883,128.611 160.5,128.5C 158.408,130.807 156.242,130.474 154,127.5C 153.5,116.172 153.333,104.838 153.5,93.5C 154.239,93.369 154.906,93.5357 155.5,94C 154.517,104.516 154.184,115.183 154.5,126C 155.025,126.692 155.692,127.192 156.5,127.5C 157.167,114.673 157.833,102.006 158.5,89.5 Z"/></g>
<g><path style="opacity:1" fill="#ae9a60" d="M 255.5,69.5 C 256.167,69.5 256.5,69.8333 256.5,70.5C 256.334,78.1739 256.5,85.8406 257,93.5C 258.258,96.941 260.758,98.2743 264.5,97.5C 264.5,96.5 264.5,95.5 264.5,94.5C 266.167,94.5 267.833,94.5 269.5,94.5C 270.598,95.397 270.598,96.2303 269.5,97C 271.291,97.4152 272.624,98.4152 273.5,100C 269.688,100.795 266.021,101.629 262.5,102.5C 260.83,102.751 259.33,103.418 258,104.5C 257.169,112.188 257.335,119.855 258.5,127.5C 263.804,125.326 268.804,122.659 273.5,119.5C 275.167,120.5 276.5,121.833 277.5,123.5C 275.919,124.579 274.253,124.579 272.5,123.5C 270.825,123.868 269.825,124.868 269.5,126.5C 267.002,127.082 264.669,127.082 262.5,126.5C 261.566,127.568 261.232,128.901 261.5,130.5C 260.521,133.625 260.187,136.958 260.5,140.5C 257.147,143.267 255.647,146.934 256,151.5C 255.517,150.552 255.351,149.552 255.5,148.5C 255.666,144.154 255.499,139.821 255,135.5C 252.593,133.125 253.093,132.125 256.5,132.5C 255.546,111.527 255.212,90.5267 255.5,69.5 Z"/></g>
<g><path style="opacity:1" fill="#ae9b66" d="M 101.5,87.5 C 103.265,88.4614 105.265,88.7947 107.5,88.5C 107.5,89.5 107.5,90.5 107.5,91.5C 106.167,91.5 105.5,92.1667 105.5,93.5C 103.516,108.464 102.849,123.797 103.5,139.5C 104.502,141.011 105.169,142.678 105.5,144.5C 102.876,146.877 102.876,149.377 105.5,152C 104.648,153.728 103.648,153.895 102.5,152.5C 101.194,151.533 100.527,150.199 100.5,148.5C 100.17,127.993 100.503,107.66 101.5,87.5 Z"/></g>
<g><path style="opacity:0.988" fill="#a89257" d="M 302.5,64.5 C 300.508,94.4816 299.841,124.815 300.5,155.5C 299.711,155.217 299.044,154.717 298.5,154C 299.46,150.27 299.793,146.437 299.5,142.5C 299.5,138.5 299.5,134.5 299.5,130.5C 299.831,109.327 299.497,88.3267 298.5,67.5C 298.5,66.8333 298.5,66.1667 298.5,65.5C 299.538,63.4805 300.872,63.1472 302.5,64.5 Z"/></g>
<g><path style="opacity:1" fill="#b29f68" d="M 150.5,77.5 C 151.962,76.5291 153.295,76.8624 154.5,78.5C 153.195,80.3972 152.529,82.7305 152.5,85.5C 152.551,88.2529 152.884,90.9195 153.5,93.5C 153.333,104.838 153.5,116.172 154,127.5C 156.242,130.474 158.408,130.807 160.5,128.5C 160.833,128.5 161.167,128.5 161.5,128.5C 164.402,128.687 167.069,128.187 169.5,127C 167.551,128.835 165.217,130.001 162.5,130.5C 164.655,131.001 166.322,132.001 167.5,133.5C 163.014,136.216 158.347,138.55 153.5,140.5C 151.837,119.687 150.837,98.6866 150.5,77.5 Z"/></g>
<g><path style="opacity:0.898" fill="#ae9b65" d="M 191.5,97.5 C 200.44,101.801 209.107,106.468 217.5,111.5C 216.244,111.461 215.244,111.961 214.5,113C 216.998,114.086 218.998,115.753 220.5,118C 217.783,119.033 215.949,118.2 215,115.5C 213.989,116.337 212.822,116.67 211.5,116.5C 208.622,114.895 205.622,113.561 202.5,112.5C 202.167,111.167 201.833,111.167 201.5,112.5C 198.763,112.599 196.096,112.265 193.5,111.5C 194.6,110.442 195.934,109.608 197.5,109C 192.99,107.582 188.99,105.415 185.5,102.5C 187.745,103.635 190.078,104.135 192.5,104C 191.09,103.632 190.09,102.799 189.5,101.5C 190.853,100.476 191.52,99.143 191.5,97.5 Z"/></g>
<g><path style="opacity:1" fill="#a9955c" d="M 81.5,79.5 C 81.8417,78.6618 82.5084,78.3284 83.5,78.5C 85.6979,79.1653 88.0312,79.8319 90.5,80.5C 88.8333,81.1667 87.1667,81.8333 85.5,82.5C 86.1272,83.4168 86.4606,84.4168 86.5,85.5C 85.603,86.5981 84.7697,86.5981 84,85.5C 83.5006,91.1569 83.3339,96.8236 83.5,102.5C 83.5,114.833 83.5,127.167 83.5,139.5C 84.5,139.5 85.5,139.5 86.5,139.5C 86.3354,142.518 86.502,145.518 87,148.5C 87.1728,142.652 87.6728,136.985 88.5,131.5C 88.5,137.167 88.5,142.833 88.5,148.5C 88.3537,150.942 89.187,151.609 91,150.5C 91.6667,151.5 91.6667,152.5 91,153.5C 87.7208,151.033 85.0541,151.366 83,154.5C 82.8322,129.33 82.3322,104.33 81.5,79.5 Z"/></g>
<g><path style="opacity:1" fill="#b3a066" d="M 88.5,128.5 C 88.5,129.5 88.5,130.5 88.5,131.5C 87.6728,136.985 87.1728,142.652 87,148.5C 86.502,145.518 86.3354,142.518 86.5,139.5C 85.5,139.5 84.5,139.5 83.5,139.5C 83.5,127.167 83.5,114.833 83.5,102.5C 84.0738,98.8355 84.9072,95.1688 86,91.5C 86.7415,94.562 86.5748,97.562 85.5,100.5C 87.1146,109.821 88.1146,119.154 88.5,128.5 Z"/></g>
<g><path style="opacity:0.075" fill="#81785c" d="M 150.5,77.5 C 150.837,98.6866 151.837,119.687 153.5,140.5C 152.791,141.404 151.791,141.737 150.5,141.5C 150.5,120.167 150.5,98.8333 150.5,77.5 Z"/></g>
<g><path style="opacity:0.435" fill="#bfa977" d="M 302.5,64.5 C 301.769,94.7094 301.436,125.043 301.5,155.5C 301.167,155.5 300.833,155.5 300.5,155.5C 299.841,124.815 300.508,94.4816 302.5,64.5 Z"/></g>
<g><path style="opacity:1" fill="#af9d6b" d="M 217.5,111.5 C 223.787,113.977 229.787,116.977 235.5,120.5C 232.104,118.979 228.937,119.312 226,121.5C 223.984,118.873 222.151,118.873 220.5,121.5C 217.304,120.071 214.304,118.405 211.5,116.5C 212.822,116.67 213.989,116.337 215,115.5C 215.949,118.2 217.783,119.033 220.5,118C 218.998,115.753 216.998,114.086 214.5,113C 215.244,111.961 216.244,111.461 217.5,111.5 Z"/></g>
<g><path style="opacity:0.995" fill="#b09d66" d="M 193.5,111.5 C 196.096,112.265 198.763,112.599 201.5,112.5C 201.833,112.5 202.167,112.5 202.5,112.5C 203.598,113.397 203.598,114.23 202.5,115C 196.145,118.178 189.811,121.344 183.5,124.5C 182.078,124.291 180.745,123.791 179.5,123C 179.67,121.43 180.003,119.597 180.5,117.5C 184.683,115.243 189.016,113.243 193.5,111.5 Z"/></g>
<g><path style="opacity:1" fill="#b19f6b" d="M 262.5,102.5 C 262.334,108.176 262.501,113.843 263,119.5C 266.499,118.203 269.999,118.203 273.5,119.5C 268.804,122.659 263.804,125.326 258.5,127.5C 257.335,119.855 257.169,112.188 258,104.5C 259.33,103.418 260.83,102.751 262.5,102.5 Z"/></g>
<g><path style="opacity:0.999" fill="#b09c65" d="M 235.5,120.5 C 239.5,122.5 243.5,124.5 247.5,126.5C 247.577,127.75 248.244,128.583 249.5,129C 247.109,129.691 247.109,130.691 249.5,132C 246.779,132.602 244.113,132.435 241.5,131.5C 234.416,128.459 227.416,125.126 220.5,121.5C 222.151,118.873 223.984,118.873 226,121.5C 228.937,119.312 232.104,118.979 235.5,120.5 Z"/></g>
<g><path style="opacity:1" fill="#ae9a67" d="M 180.5,117.5 C 180.003,119.597 179.67,121.43 179.5,123C 180.745,123.791 182.078,124.291 183.5,124.5C 178.17,127.499 172.837,130.499 167.5,133.5C 166.322,132.001 164.655,131.001 162.5,130.5C 165.217,130.001 167.551,128.835 169.5,127C 167.069,128.187 164.402,128.687 161.5,128.5C 167.634,124.596 173.968,120.929 180.5,117.5 Z"/></g>
<g><path style="opacity:1" fill="#a79563" d="M 277.5,123.5 C 282.825,128.324 287.991,133.324 293,138.5C 293.497,135.854 293.664,133.187 293.5,130.5C 294.477,133.287 294.81,136.287 294.5,139.5C 291.575,138.361 288.575,137.861 285.5,138C 286.464,139.725 287.131,141.559 287.5,143.5C 286.833,143.5 286.167,143.5 285.5,143.5C 285.631,142.761 285.464,142.094 285,141.5C 279.938,136.269 274.771,131.269 269.5,126.5C 269.825,124.868 270.825,123.868 272.5,123.5C 274.253,124.579 275.919,124.579 277.5,123.5 Z"/></g>
<g><path style="opacity:0.055" fill="#dbd1b2" d="M 101.5,87.5 C 103.833,87.5 106.167,87.5 108.5,87.5C 108.5,107.833 108.5,128.167 108.5,148.5C 121.833,148.5 135.167,148.5 148.5,148.5C 135.01,149.496 121.344,149.829 107.5,149.5C 107.5,142.833 107.5,136.167 107.5,129.5C 107.5,116.833 107.5,104.167 107.5,91.5C 107.5,90.5 107.5,89.5 107.5,88.5C 105.265,88.7947 103.265,88.4614 101.5,87.5 Z"/></g>
<g><path style="opacity:1" fill="#b8a574" d="M 254.5,66.5 C 255.404,67.209 255.737,68.209 255.5,69.5C 255.212,90.5267 255.546,111.527 256.5,132.5C 253.093,132.125 252.593,133.125 255,135.5C 255.499,139.821 255.666,144.154 255.5,148.5C 255.167,148.5 254.833,148.5 254.5,148.5C 254.82,145.102 254.487,141.768 253.5,138.5C 249.109,136.645 245.109,134.311 241.5,131.5C 244.113,132.435 246.779,132.602 249.5,132C 247.109,130.691 247.109,129.691 249.5,129C 248.244,128.583 247.577,127.75 247.5,126.5C 249.473,127.487 251.473,128.487 253.5,129.5C 254.5,108.511 254.833,87.5106 254.5,66.5 Z"/></g>
<g><path style="opacity:0.899" fill="#ae9b61" d="M 299.5,130.5 C 299.5,134.5 299.5,138.5 299.5,142.5C 295.392,141.133 291.392,141.466 287.5,143.5C 287.131,141.559 286.464,139.725 285.5,138C 288.575,137.861 291.575,138.361 294.5,139.5C 294.81,136.287 294.477,133.287 293.5,130.5C 293.5,129.833 293.5,129.167 293.5,128.5C 294.117,128.389 294.617,128.056 295,127.5C 295.167,115.153 295.667,102.82 296.5,90.5C 296.843,104.192 297.843,117.525 299.5,130.5 Z"/></g>
<g><path style="opacity:0.004" fill="#000000" d="M 281.5,140.5 C 282.833,141.167 282.833,141.167 281.5,140.5 Z"/></g>
<g><path style="opacity:0.004" fill="#000000" d="M 285.5,143.5 C 284.833,144.167 284.833,144.167 285.5,143.5 Z"/></g>
<g><path style="opacity:0.004" fill="#000000" d="M 286.5,145.5 C 287.833,146.167 287.833,146.167 286.5,145.5 Z"/></g>
<g><path style="opacity:1" fill="#ad9a65" d="M 299.5,142.5 C 299.793,146.437 299.46,150.27 298.5,154C 299.044,154.717 299.711,155.217 300.5,155.5C 300.833,155.5 301.167,155.5 301.5,155.5C 302.525,155.897 302.692,156.563 302,157.5C 296.688,153.355 291.855,148.688 287.5,143.5C 291.392,141.466 295.392,141.133 299.5,142.5 Z"/></g>
<g><path style="opacity:0.898" fill="#a99962" d="M 148.5,148.5 C 149.167,148.5 149.833,148.5 150.5,148.5C 185.002,149.167 219.669,149.833 254.5,150.5C 239.257,150.906 223.59,150.906 207.5,150.5C 188.389,150.568 169.389,150.568 150.5,150.5C 136.167,150.5 121.833,150.5 107.5,150.5C 107.205,152.735 107.539,154.735 108.5,156.5C 108.5,156.833 108.5,157.167 108.5,157.5C 107.686,159.631 107.186,161.964 107,164.5C 106.184,159.316 106.35,154.316 107.5,149.5C 121.344,149.829 135.01,149.496 148.5,148.5 Z"/></g>
<g><path style="opacity:1" fill="#b09b65" d="M 150.5,150.5 C 148.695,152.197 146.361,153.03 143.5,153C 133.325,153.17 123.325,153.67 113.5,154.5C 113.5,154.833 113.5,155.167 113.5,155.5C 111.585,155.216 109.919,155.549 108.5,156.5C 107.539,154.735 107.205,152.735 107.5,150.5C 121.833,150.5 136.167,150.5 150.5,150.5 Z"/></g>
<g><path style="opacity:1" fill="#b09c64" d="M 150.5,150.5 C 169.389,150.568 188.389,150.568 207.5,150.5C 217.355,151.242 227.355,152.075 237.5,153C 235.942,153.21 234.609,153.71 233.5,154.5C 193.5,154.5 153.5,154.5 113.5,154.5C 123.325,153.67 133.325,153.17 143.5,153C 146.361,153.03 148.695,152.197 150.5,150.5 Z"/></g>
<g><path style="opacity:0.004" fill="#000000" d="M 292.5,151.5 C 291.833,150.167 291.833,150.167 292.5,151.5 Z"/></g>
<g><path style="opacity:1" fill="#b7a473" d="M 260.5,140.5 C 260.5,145.167 260.5,149.833 260.5,154.5C 251.5,154.5 242.5,154.5 233.5,154.5C 234.609,153.71 235.942,153.21 237.5,153C 227.355,152.075 217.355,151.242 207.5,150.5C 223.59,150.906 239.257,150.906 254.5,150.5C 219.669,149.833 185.002,149.167 150.5,148.5C 185.167,148.5 219.833,148.5 254.5,148.5C 254.833,148.5 255.167,148.5 255.5,148.5C 255.351,149.552 255.517,150.552 256,151.5C 255.647,146.934 257.147,143.267 260.5,140.5 Z"/></g>
<g><path style="opacity:0.004" fill="#000000" d="M 292.5,151.5 C 293.833,152.167 293.833,152.167 292.5,151.5 Z"/></g>
<g><path style="opacity:1" fill="#ad9d6e" d="M 81.5,79.5 C 82.3322,104.33 82.8322,129.33 83,154.5C 85.0541,151.366 87.7208,151.033 91,153.5C 91.6667,152.5 91.6667,151.5 91,150.5C 89.187,151.609 88.3537,150.942 88.5,148.5C 92.5,148.5 96.5,148.5 100.5,148.5C 100.527,150.199 101.194,151.533 102.5,152.5C 102.473,154.199 101.806,155.533 100.5,156.5C 93.8333,156.5 87.1667,156.5 80.5,156.5C 80.1689,130.661 80.5022,104.995 81.5,79.5 Z"/></g>
<g><path style="opacity:1" fill="#ae9b67" d="M 107.5,129.5 C 107.5,136.167 107.5,142.833 107.5,149.5C 106.35,154.316 106.184,159.316 107,164.5C 107.186,161.964 107.686,159.631 108.5,157.5C 108.5,160.5 108.5,163.5 108.5,166.5C 108.5,166.833 108.5,167.167 108.5,167.5C 106.958,166.699 105.292,166.366 103.5,166.5C 103.162,164.146 102.662,161.813 102,159.5C 101.501,164.489 101.334,169.489 101.5,174.5C 101.167,174.5 100.833,174.5 100.5,174.5C 100.5,168.5 100.5,162.5 100.5,156.5C 101.806,155.533 102.473,154.199 102.5,152.5C 103.648,153.895 104.648,153.728 105.5,152C 102.876,149.377 102.876,146.877 105.5,144.5C 106.212,140.077 106.879,135.077 107.5,129.5 Z"/></g>
<g><path style="opacity:0.927" fill="#b5a66b" d="M 261.5,130.5 C 261.5,138.833 261.5,147.167 261.5,155.5C 212.167,155.5 162.833,155.5 113.5,155.5C 113.5,155.167 113.5,154.833 113.5,154.5C 153.5,154.5 193.5,154.5 233.5,154.5C 242.5,154.5 251.5,154.5 260.5,154.5C 260.5,149.833 260.5,145.167 260.5,140.5C 260.187,136.958 260.521,133.625 261.5,130.5 Z"/></g>
<g><path style="opacity:0.004" fill="#000000" d="M 295.5,154.5 C 296.833,155.167 296.833,155.167 295.5,154.5 Z"/></g>
<g><path style="opacity:0.227" fill="#9e9573" d="M 262.5,126.5 C 262.5,136.5 262.5,146.5 262.5,156.5C 211.167,156.5 159.833,156.5 108.5,156.5C 109.919,155.549 111.585,155.216 113.5,155.5C 162.833,155.5 212.167,155.5 261.5,155.5C 261.5,147.167 261.5,138.833 261.5,130.5C 261.232,128.901 261.566,127.568 262.5,126.5 Z"/></g>
<g><path style="opacity:0.004" fill="#000000" d="M 262.5,156.5 C 263.833,157.167 263.833,157.167 262.5,156.5 Z"/></g>
<g><path style="opacity:1" fill="#b1a066" d="M 108.5,167.5 C 149.337,167.168 190.003,167.501 230.5,168.5C 208.164,168.333 185.831,168.5 163.5,169C 167.252,169.24 170.919,169.74 174.5,170.5C 166.68,171.002 158.68,171.002 150.5,170.5C 138.495,170.333 126.495,170.5 114.5,171C 113.109,172.02 111.609,172.853 110,173.5C 107.599,172.398 105.099,172.231 102.5,173C 103.737,173.232 104.737,173.732 105.5,174.5C 104.167,174.5 102.833,174.5 101.5,174.5C 101.334,169.489 101.501,164.489 102,159.5C 102.662,161.813 103.162,164.146 103.5,166.5C 105.292,166.366 106.958,166.699 108.5,167.5 Z"/></g>
<g><path style="opacity:1" fill="#af9c62" d="M 230.5,168.5 C 230.389,169.117 230.056,169.617 229.5,170C 221.92,170.813 214.42,170.647 207,169.5C 205.174,171.074 203.007,171.907 200.5,172C 194.843,172.499 189.176,172.666 183.5,172.5C 181.552,171.869 179.719,170.869 178,169.5C 176.989,170.337 175.822,170.67 174.5,170.5C 170.919,169.74 167.252,169.24 163.5,169C 185.831,168.5 208.164,168.333 230.5,168.5 Z"/></g>
<g><path style="opacity:1" fill="#c3b373" d="M 183.5,172.5 C 188.294,173.314 195.628,173.981 205.5,174.5C 187.167,174.5 168.833,174.5 150.5,174.5C 155.985,173.673 161.652,173.173 167.5,173C 162.5,172.667 157.5,172.333 152.5,172C 151.584,171.722 150.918,171.222 150.5,170.5C 158.68,171.002 166.68,171.002 174.5,170.5C 175.822,170.67 176.989,170.337 178,169.5C 179.719,170.869 181.552,171.869 183.5,172.5 Z"/></g>
<g><path style="opacity:1" fill="#a69a67" d="M 238.5,174.5 C 227.5,174.5 216.5,174.5 205.5,174.5C 195.628,173.981 188.294,173.314 183.5,172.5C 189.176,172.666 194.843,172.499 200.5,172C 203.007,171.907 205.174,171.074 207,169.5C 214.42,170.647 221.92,170.813 229.5,170C 230.056,169.617 230.389,169.117 230.5,168.5C 190.003,167.501 149.337,167.168 108.5,167.5C 108.5,167.167 108.5,166.833 108.5,166.5C 149.167,166.5 189.833,166.5 230.5,166.5C 230.5,163.5 230.5,160.5 230.5,157.5C 233.572,157.183 236.572,157.516 239.5,158.5C 238.549,163.77 238.215,169.103 238.5,174.5 Z"/></g>
<g><path style="opacity:1" fill="#b5a36e" d="M 150.5,170.5 C 150.918,171.222 151.584,171.722 152.5,172C 157.5,172.333 162.5,172.667 167.5,173C 161.652,173.173 155.985,173.673 150.5,174.5C 135.5,174.5 120.5,174.5 105.5,174.5C 104.737,173.732 103.737,173.232 102.5,173C 105.099,172.231 107.599,172.398 110,173.5C 111.609,172.853 113.109,172.02 114.5,171C 126.495,170.5 138.495,170.333 150.5,170.5 Z"/></g>
<g><path style="opacity:0.004" fill="#000000" d="M 100.5,174.5 C 99.8333,175.167 99.8333,175.167 100.5,174.5 Z"/></g>
<g><path style="opacity:0.004" fill="#000000" d="M 238.5,174.5 C 239.833,175.167 239.833,175.167 238.5,174.5 Z"/></g>
<g><path style="opacity:0.004" fill="#000000" d="M 127.5,201.5 C 128.833,202.167 128.833,202.167 127.5,201.5 Z"/></g>
<g><path style="opacity:0.004" fill="#000000" d="M 136.5,202.5 C 135.833,201.167 135.833,201.167 136.5,202.5 Z"/></g>
<g><path style="opacity:0.004" fill="#000000" d="M 154.5,202.5 C 153.833,201.167 153.833,201.167 154.5,202.5 Z"/></g>
<g><path style="opacity:0.004" fill="#000000" d="M 197.5,201.5 C 198.833,202.167 198.833,202.167 197.5,201.5 Z"/></g>
<g><path style="opacity:0.004" fill="#000000" d="M 210.5,202.5 C 209.833,201.167 209.833,201.167 210.5,202.5 Z"/></g>
<g><path style="opacity:0.004" fill="#000000" d="M 292.5,202.5 C 291.833,201.167 291.833,201.167 292.5,202.5 Z"/></g>
<g><path style="opacity:0.004" fill="#000000" d="M 67.5,203.5 C 68.8333,204.167 68.8333,204.167 67.5,203.5 Z"/></g>
<g><path style="opacity:1" fill="#b09d6c" d="M 154.5,202.5 C 162.167,202.5 169.833,202.5 177.5,202.5C 177.5,205.167 177.5,207.833 177.5,210.5C 172.833,210.5 168.167,210.5 163.5,210.5C 163.167,210.5 162.833,210.5 162.5,210.5C 161.839,211.718 161.172,213.051 160.5,214.5C 158.8,209.092 157.8,209.258 157.5,215C 156.612,225.48 156.279,235.98 156.5,246.5C 163.167,246.5 169.833,246.5 176.5,246.5C 169.432,247.827 162.265,247.827 155,246.5C 154.5,231.837 154.333,217.17 154.5,202.5 Z"/></g>
<g><path style="opacity:1" fill="#b3a06e" d="M 197.5,202.5 C 198.677,207.543 200.011,212.543 201.5,217.5C 200.21,216.942 199.377,215.942 199,214.5C 198.667,215.5 198.333,216.5 198,217.5C 197.31,218.738 196.81,218.738 196.5,217.5C 196.387,214.951 197.054,212.618 198.5,210.5C 196.433,209.866 194.6,208.866 193,207.5C 192.333,208.167 191.667,208.833 191,209.5C 190.759,212.289 190.092,214.956 189,217.5C 188.925,215.065 188.092,214.398 186.5,215.5C 186.5,211.167 186.5,206.833 186.5,202.5C 190.167,202.5 193.833,202.5 197.5,202.5 Z"/></g>
<g><path style="opacity:1" fill="#ac9a68" d="M 210.5,202.5 C 211.167,202.5 211.833,202.5 212.5,202.5C 215.057,203.588 217.724,204.588 220.5,205.5C 220.5,206.5 220.5,207.5 220.5,208.5C 214.303,207.742 212.303,210.242 214.5,216C 214.343,218.637 213.677,221.137 212.5,223.5C 212.957,224.298 213.624,224.631 214.5,224.5C 214.167,225.167 213.833,225.833 213.5,226.5C 211.538,233.401 209.538,240.401 207.5,247.5C 204.99,247.946 202.99,247.28 201.5,245.5C 203.288,245.785 204.955,245.452 206.5,244.5C 205.754,243.264 205.421,241.93 205.5,240.5C 206.222,240.918 206.722,241.584 207,242.5C 207.758,240.231 207.591,238.064 206.5,236C 209.685,235.343 211.352,233.343 211.5,230C 208.903,227.683 208.07,224.85 209,221.5C 209.419,222.672 210.085,223.672 211,224.5C 211.667,221.167 211.667,217.833 211,214.5C 209.53,216.631 208.03,218.631 206.5,220.5C 208.15,214.565 209.484,208.565 210.5,202.5 Z"/></g>
<g><path style="opacity:1" fill="#b39f6b" d="M 285.5,210.5 C 282.287,210.19 279.287,210.523 276.5,211.5C 275.505,222.988 275.172,234.655 275.5,246.5C 272.833,246.5 270.167,246.5 267.5,246.5C 267.5,240.833 267.5,235.167 267.5,229.5C 267.833,229.5 268.167,229.5 268.5,229.5C 268.039,234.367 269.039,238.867 271.5,243C 271.043,243.414 270.709,243.914 270.5,244.5C 271.689,245.429 273.022,245.762 274.5,245.5C 274.5,237.5 274.5,229.5 274.5,221.5C 274.335,217.818 274.501,214.152 275,210.5C 277.472,209.8 279.805,208.8 282,207.5C 284.078,208.943 284.911,208.276 284.5,205.5C 278.168,205.944 271.835,206.444 265.5,207C 264.672,207.915 263.672,208.581 262.5,209C 264.382,209.198 266.048,209.698 267.5,210.5C 264.833,210.5 262.167,210.5 259.5,210.5C 259.5,207.833 259.5,205.167 259.5,202.5C 268.167,202.5 276.833,202.5 285.5,202.5C 285.5,205.167 285.5,207.833 285.5,210.5 Z"/></g>
<g><path style="opacity:1" fill="#af9a64" d="M 315.5,208.5 C 311.285,210.436 306.619,211.103 301.5,210.5C 301.5,213.5 301.5,216.5 301.5,219.5C 300.883,219.611 300.383,219.944 300,220.5C 299.722,219.584 299.222,218.918 298.5,218.5C 298.71,214.839 298.044,211.339 296.5,208C 297.732,205.973 297.398,204.64 295.5,204C 301.491,203.501 307.491,203.334 313.5,203.5C 313.12,205.698 313.787,207.365 315.5,208.5 Z"/></g>
<g><path style="opacity:0.988" fill="#ab9862" d="M 274.5,221.5 C 273.883,221.611 273.383,221.944 273,222.5C 272.667,225.833 272.333,229.167 272,232.5C 271.586,232.957 271.086,233.291 270.5,233.5C 269.338,228.533 269.171,223.533 270,218.5C 270.414,218.957 270.914,219.291 271.5,219.5C 272.657,216.216 272.824,212.882 272,209.5C 268.971,215.754 267.805,222.421 268.5,229.5C 268.167,229.5 267.833,229.5 267.5,229.5C 267.5,223.167 267.5,216.833 267.5,210.5C 266.048,209.698 264.382,209.198 262.5,209C 263.672,208.581 264.672,207.915 265.5,207C 271.835,206.444 278.168,205.944 284.5,205.5C 284.911,208.276 284.078,208.943 282,207.5C 279.805,208.8 277.472,209.8 275,210.5C 274.501,214.152 274.335,217.818 274.5,221.5 Z"/></g>
<g><path style="opacity:1" fill="#b09d68" d="M 83.5,218.5 C 83.4249,215.794 83.0916,213.127 82.5,210.5C 74.8803,208.935 72.8803,211.435 76.5,218C 80.5796,220.029 84.2463,222.529 87.5,225.5C 85.9557,225.297 84.6223,224.63 83.5,223.5C 83.1667,223.833 82.8333,224.167 82.5,224.5C 89.3201,234.198 88.6534,234.698 80.5,226C 78.5527,225.009 76.5527,224.675 74.5,225C 75.3805,225.708 76.0472,226.542 76.5,227.5C 66.4456,223.394 63.6123,216.394 68,206.5C 73.8227,200.876 80.3227,200.043 87.5,204C 91.0096,207.862 92.5096,212.362 92,217.5C 89.2809,218.444 86.4475,218.777 83.5,218.5 Z"/></g>
<g><path style="opacity:1" fill="#b3a16f" d="M 196.5,217.5 C 195.778,217.918 195.278,218.584 195,219.5C 194.667,219.167 194.333,218.833 194,218.5C 194.768,215.504 194.601,212.837 193.5,210.5C 192.186,215.652 192.186,220.652 193.5,225.5C 193.5,231.833 193.5,238.167 193.5,244.5C 192.167,244.5 190.833,244.5 189.5,244.5C 189.237,235.823 188.737,227.157 188,218.5C 187.83,227.343 187.33,236.01 186.5,244.5C 186.5,234.833 186.5,225.167 186.5,215.5C 188.092,214.398 188.925,215.065 189,217.5C 190.092,214.956 190.759,212.289 191,209.5C 191.667,208.833 192.333,208.167 193,207.5C 194.6,208.866 196.433,209.866 198.5,210.5C 197.054,212.618 196.387,214.951 196.5,217.5 Z"/></g>
<g><path style="opacity:1" fill="#b0a063" d="M 212.5,202.5 C 216.329,201.931 219.663,202.598 222.5,204.5C 221.517,208.298 221.183,212.298 221.5,216.5C 219.938,214.628 218.938,212.295 218.5,209.5C 217.692,209.808 217.025,210.308 216.5,211C 217.758,216.499 218.258,222.333 218,228.5C 217.849,225.881 217.015,223.547 215.5,221.5C 214.614,222.325 214.281,223.325 214.5,224.5C 213.624,224.631 212.957,224.298 212.5,223.5C 213.677,221.137 214.343,218.637 214.5,216C 212.303,210.242 214.303,207.742 220.5,208.5C 220.5,207.5 220.5,206.5 220.5,205.5C 217.724,204.588 215.057,203.588 212.5,202.5 Z"/></g>
<g><path style="opacity:1" fill="#ad9b65" d="M 247.5,247.5 C 247.5,245.833 247.5,244.167 247.5,242.5C 245.107,241.79 242.607,241.123 240,240.5C 239.251,239.365 239.417,238.365 240.5,237.5C 243.408,239.876 246.408,240.043 249.5,238C 247.1,237.814 244.766,237.314 242.5,236.5C 243.243,235.818 243.909,235.151 244.5,234.5C 245.043,234.44 245.376,234.107 245.5,233.5C 244.4,229.061 243.4,224.728 242.5,220.5C 243.323,218.545 243.49,216.545 243,214.5C 242.333,215.833 241.667,215.833 241,214.5C 240.781,213.062 240.281,211.729 239.5,210.5C 238.675,214.122 238.175,217.789 238,221.5C 236.379,215.55 236.212,209.55 237.5,203.5C 241.298,202.517 245.298,202.183 249.5,202.5C 251.259,217.121 253.592,231.621 256.5,246C 253.722,247.392 250.722,247.892 247.5,247.5 Z"/></g>
<g><path style="opacity:0.004" fill="#000000" d="M 285.5,210.5 C 286.833,211.167 286.833,211.167 285.5,210.5 Z"/></g>
<g><path style="opacity:1" fill="#beae76" d="M 292.5,202.5 C 300.167,202.5 307.833,202.5 315.5,202.5C 315.5,204.5 315.5,206.5 315.5,208.5C 313.787,207.365 313.12,205.698 313.5,203.5C 307.491,203.334 301.491,203.501 295.5,204C 297.398,204.64 297.732,205.973 296.5,208C 298.044,211.339 298.71,214.839 298.5,218.5C 298.5,219.833 297.833,220.5 296.5,220.5C 296.307,216.551 295.807,216.551 295,220.5C 294.667,214.833 294.333,209.167 294,203.5C 293.5,217.496 293.333,231.496 293.5,245.5C 293.5,246.167 293.167,246.5 292.5,246.5C 292.5,231.833 292.5,217.167 292.5,202.5 Z"/></g>
<g><path style="opacity:1" fill="#af9c64" d="M 127.5,205.5 C 130.244,209.439 132.244,213.773 133.5,218.5C 129.163,219.339 126.663,222.006 126,226.5C 126.676,232.973 126.509,239.307 125.5,245.5C 124.432,244.566 123.099,244.232 121.5,244.5C 121.333,233.162 121.5,221.828 122,210.5C 122.551,204.281 124.217,203.948 127,209.5C 127.49,208.207 127.657,206.873 127.5,205.5 Z"/></g>
<g><path style="opacity:1" fill="#ae9b6a" d="M 237.5,203.5 C 236.212,209.55 236.379,215.55 238,221.5C 238.175,217.789 238.675,214.122 239.5,210.5C 240.281,211.729 240.781,213.062 241,214.5C 241.667,215.833 242.333,215.833 243,214.5C 243.49,216.545 243.323,218.545 242.5,220.5C 242.5,221.833 242.5,223.167 242.5,224.5C 241.732,223.737 241.232,222.737 241,221.5C 240.641,224.544 239.974,224.878 239,222.5C 238.333,223.833 237.667,225.167 237,226.5C 236.692,225.692 236.192,225.025 235.5,224.5C 232.989,228.192 232.989,231.858 235.5,235.5C 235.333,236.5 235.167,237.5 235,238.5C 234.626,236.509 233.793,234.842 232.5,233.5C 233.623,223.283 235.29,213.283 237.5,203.5 Z"/></g>
<g><path style="opacity:1" fill="#ab9c67" d="M 127.5,205.5 C 127.657,206.873 127.49,208.207 127,209.5C 124.217,203.948 122.551,204.281 122,210.5C 121.5,221.828 121.333,233.162 121.5,244.5C 123.099,244.232 124.432,244.566 125.5,245.5C 123.565,246.15 121.565,246.483 119.5,246.5C 118.504,232.01 118.171,217.343 118.5,202.5C 121.187,202.336 123.854,202.503 126.5,203C 127.252,203.671 127.586,204.504 127.5,205.5 Z"/></g>
<g><path style="opacity:1" fill="#ac985e" d="M 296.5,220.5 C 295.533,228.414 295.199,236.414 295.5,244.5C 296.5,244.5 297.5,244.5 298.5,244.5C 298.5,242.833 298.5,241.167 298.5,239.5C 303.797,240.275 309.13,240.608 314.5,240.5C 314.5,242.167 314.5,243.833 314.5,245.5C 307.5,245.5 300.5,245.5 293.5,245.5C 293.333,231.496 293.5,217.496 294,203.5C 294.333,209.167 294.667,214.833 295,220.5C 295.807,216.551 296.307,216.551 296.5,220.5 Z"/></g>
<g><path style="opacity:0.004" fill="#000000" d="M 83.5,218.5 C 82.8333,219.167 82.8333,219.167 83.5,218.5 Z"/></g>
<g><path style="opacity:1" fill="#ae9c6d" d="M 133.5,218.5 C 134.363,220.421 135.029,222.421 135.5,224.5C 133.949,226.78 132.615,229.28 131.5,232C 131.833,232.5 132.167,233 132.5,233.5C 133.905,230.148 135.239,229.982 136.5,233C 134.182,236.282 133.849,239.782 135.5,243.5C 132.501,238.158 130.001,232.492 128,226.5C 127.5,233.492 127.334,240.492 127.5,247.5C 124.615,247.806 121.948,247.473 119.5,246.5C 121.565,246.483 123.565,246.15 125.5,245.5C 126.509,239.307 126.676,232.973 126,226.5C 126.663,222.006 129.163,219.339 133.5,218.5 Z"/></g>
<g><path style="opacity:0.22" fill="#7d735a" d="M 222.5,204.5 C 222.5,218.833 222.5,233.167 222.5,247.5C 219.615,247.806 216.948,247.473 214.5,246.5C 216.833,246.5 219.167,246.5 221.5,246.5C 221.5,236.5 221.5,226.5 221.5,216.5C 221.183,212.298 221.517,208.298 222.5,204.5 Z"/></g>
<g><path style="opacity:1" fill="#a39261" d="M 162.5,210.5 C 162.833,210.5 163.167,210.5 163.5,210.5C 163.5,213.5 163.5,216.5 163.5,219.5C 167.5,219.5 171.5,219.5 175.5,219.5C 175.5,222.5 175.5,225.5 175.5,228.5C 171.5,228.5 167.5,228.5 163.5,228.5C 163.5,231.833 163.5,235.167 163.5,238.5C 168.032,238.182 172.366,238.515 176.5,239.5C 169.762,239.204 163.428,239.204 157.5,239.5C 158.286,234.219 158.786,228.885 159,223.5C 159.667,222.167 160.667,221.167 162,220.5C 162.498,217.183 162.665,213.85 162.5,210.5 Z"/></g>
<g><path style="opacity:0.004" fill="#000000" d="M 67.5,223.5 C 68.8333,224.167 68.8333,224.167 67.5,223.5 Z"/></g>
<g><path style="opacity:0.322" fill="#706548" d="M 302.5,219.5 C 306.167,219.5 309.833,219.5 313.5,219.5C 313.5,222.5 313.5,225.5 313.5,228.5C 309.5,228.5 305.5,228.5 301.5,228.5C 304.962,227.518 308.629,227.185 312.5,227.5C 312.5,225.167 312.5,222.833 312.5,220.5C 308.958,220.813 305.625,220.479 302.5,219.5 Z"/></g>
<g><path style="opacity:1" fill="#b29f67" d="M 298.5,218.5 C 299.222,218.918 299.722,219.584 300,220.5C 300.383,219.944 300.883,219.611 301.5,219.5C 301.833,219.5 302.167,219.5 302.5,219.5C 305.625,220.479 308.958,220.813 312.5,220.5C 312.5,222.833 312.5,225.167 312.5,227.5C 308.629,227.185 304.962,227.518 301.5,228.5C 301.5,231.833 301.5,235.167 301.5,238.5C 300.679,235.359 300.179,232.025 300,228.5C 298.892,232.086 298.392,235.753 298.5,239.5C 298.5,241.167 298.5,242.833 298.5,244.5C 297.5,244.5 296.5,244.5 295.5,244.5C 295.199,236.414 295.533,228.414 296.5,220.5C 297.833,220.5 298.5,219.833 298.5,218.5 Z"/></g>
<g><path style="opacity:0.004" fill="#000000" d="M 90.5,226.5 C 91.8333,227.167 91.8333,227.167 90.5,226.5 Z"/></g>
<g><path style="opacity:1" fill="#ae9c64" d="M 196.5,217.5 C 196.81,218.738 197.31,218.738 198,217.5C 198.333,216.5 198.667,215.5 199,214.5C 199.377,215.942 200.21,216.942 201.5,217.5C 202.423,219.767 203.256,222.1 204,224.5C 204.934,223.142 205.768,221.808 206.5,220.5C 206.187,223.875 205.853,227.208 205.5,230.5C 204.25,230.423 203.417,229.756 203,228.5C 202.902,230.619 202.069,232.286 200.5,233.5C 199.901,230.045 198.568,227.045 196.5,224.5C 196.649,223.448 196.483,222.448 196,221.5C 194.294,222.308 193.461,223.641 193.5,225.5C 192.186,220.652 192.186,215.652 193.5,210.5C 194.601,212.837 194.768,215.504 194,218.5C 194.333,218.833 194.667,219.167 195,219.5C 195.278,218.584 195.778,217.918 196.5,217.5 Z"/></g>
<g><path style="opacity:0.004" fill="#000000" d="M 175.5,228.5 C 176.833,229.167 176.833,229.167 175.5,228.5 Z"/></g>
<g><path style="opacity:1" fill="#b29f68" d="M 196.5,224.5 C 198.568,227.045 199.901,230.045 200.5,233.5C 202.069,232.286 202.902,230.619 203,228.5C 203.417,229.756 204.25,230.423 205.5,230.5C 205.52,232.143 204.853,233.476 203.5,234.5C 205.086,236.173 205.753,238.173 205.5,240.5C 205.421,241.93 205.754,243.264 206.5,244.5C 204.955,245.452 203.288,245.785 201.5,245.5C 199.572,239.548 197.739,233.548 196,227.5C 195.501,232.823 195.334,238.156 195.5,243.5C 194.347,237.681 194.181,231.681 195,225.5C 195.383,224.944 195.883,224.611 196.5,224.5 Z"/></g>
<g><path style="opacity:0.004" fill="#000000" d="M 313.5,228.5 C 314.833,229.167 314.833,229.167 313.5,228.5 Z"/></g>
<g><path style="opacity:0.004" fill="#000000" d="M 65.5,230.5 C 64.8333,229.167 64.8333,229.167 65.5,230.5 Z"/></g>
<g><path style="opacity:0.004" fill="#000000" d="M 74.5,229.5 C 75.8333,230.167 75.8333,230.167 74.5,229.5 Z"/></g>
<g><path style="opacity:1" fill="#af9c63" d="M 205.5,240.5 C 205.753,238.173 205.086,236.173 203.5,234.5C 204.853,233.476 205.52,232.143 205.5,230.5C 205.853,227.208 206.187,223.875 206.5,220.5C 208.03,218.631 209.53,216.631 211,214.5C 211.667,217.833 211.667,221.167 211,224.5C 210.085,223.672 209.419,222.672 209,221.5C 208.07,224.85 208.903,227.683 211.5,230C 211.352,233.343 209.685,235.343 206.5,236C 207.591,238.064 207.758,240.231 207,242.5C 206.722,241.584 206.222,240.918 205.5,240.5 Z"/></g>
<g><path style="opacity:1" fill="#b2a069" d="M 136.5,202.5 C 139.167,202.5 141.833,202.5 144.5,202.5C 144.5,217.5 144.5,232.5 144.5,247.5C 141.615,247.806 138.948,247.473 136.5,246.5C 138.607,245.532 140.941,245.198 143.5,245.5C 143.74,231.808 143.407,218.141 142.5,204.5C 141.167,204.5 139.833,204.5 138.5,204.5C 140.304,217.734 140.97,231.067 140.5,244.5C 138.833,244.5 137.167,244.5 135.5,244.5C 135.5,244.167 135.5,243.833 135.5,243.5C 133.849,239.782 134.182,236.282 136.5,233C 135.239,229.982 133.905,230.148 132.5,233.5C 132.167,233 131.833,232.5 131.5,232C 132.615,229.28 133.949,226.78 135.5,224.5C 136.492,217.352 136.825,210.019 136.5,202.5 Z"/></g>
<g><path style="opacity:1" fill="#ae9963" d="M 136.5,246.5 C 135.662,246.158 135.328,245.492 135.5,244.5C 137.167,244.5 138.833,244.5 140.5,244.5C 140.97,231.067 140.304,217.734 138.5,204.5C 139.833,204.5 141.167,204.5 142.5,204.5C 143.407,218.141 143.74,231.808 143.5,245.5C 140.941,245.198 138.607,245.532 136.5,246.5 Z"/></g>
<g><path style="opacity:1" fill="#b09e66" d="M 87.5,225.5 C 93.9079,231.483 94.0746,237.817 88,244.5C 86.8904,246.037 85.3904,246.703 83.5,246.5C 80.8127,246.664 78.146,246.497 75.5,246C 77.7916,244.803 78.1249,243.137 76.5,241C 77.0556,239.989 77.7222,239.156 78.5,238.5C 83.3592,238.106 84.5259,235.773 82,231.5C 80.1879,230.023 78.3545,228.69 76.5,227.5C 76.0472,226.542 75.3805,225.708 74.5,225C 76.5527,224.675 78.5527,225.009 80.5,226C 88.6534,234.698 89.3201,234.198 82.5,224.5C 82.8333,224.167 83.1667,223.833 83.5,223.5C 84.6223,224.63 85.9557,225.297 87.5,225.5 Z"/></g>
<g><path style="opacity:1" fill="#b19d67" d="M 221.5,216.5 C 221.5,226.5 221.5,236.5 221.5,246.5C 219.167,246.5 216.833,246.5 214.5,246.5C 213.509,240.021 213.176,233.354 213.5,226.5C 213.833,225.833 214.167,225.167 214.5,224.5C 214.281,223.325 214.614,222.325 215.5,221.5C 217.015,223.547 217.849,225.881 218,228.5C 218.258,222.333 217.758,216.499 216.5,211C 217.025,210.308 217.692,209.808 218.5,209.5C 218.938,212.295 219.938,214.628 221.5,216.5 Z"/></g>
<g><path style="opacity:1" fill="#b29e66" d="M 162.5,210.5 C 162.665,213.85 162.498,217.183 162,220.5C 160.667,221.167 159.667,222.167 159,223.5C 158.786,228.885 158.286,234.219 157.5,239.5C 163.428,239.204 169.762,239.204 176.5,239.5C 177.833,241.833 177.833,244.167 176.5,246.5C 169.833,246.5 163.167,246.5 156.5,246.5C 156.279,235.98 156.612,225.48 157.5,215C 157.8,209.258 158.8,209.092 160.5,214.5C 161.172,213.051 161.839,211.718 162.5,210.5 Z"/></g>
<g><path style="opacity:1" fill="#a2925b" d="M 193.5,225.5 C 193.461,223.641 194.294,222.308 196,221.5C 196.483,222.448 196.649,223.448 196.5,224.5C 195.883,224.611 195.383,224.944 195,225.5C 194.181,231.681 194.347,237.681 195.5,243.5C 195.5,244.833 195.5,246.167 195.5,247.5C 192.813,247.664 190.146,247.497 187.5,247C 186.748,246.329 186.414,245.496 186.5,244.5C 187.33,236.01 187.83,227.343 188,218.5C 188.737,227.157 189.237,235.823 189.5,244.5C 190.833,244.5 192.167,244.5 193.5,244.5C 193.5,238.167 193.5,231.833 193.5,225.5 Z"/></g>
<g><path style="opacity:1" fill="#ae9c61" d="M 274.5,221.5 C 274.5,229.5 274.5,237.5 274.5,245.5C 273.022,245.762 271.689,245.429 270.5,244.5C 270.709,243.914 271.043,243.414 271.5,243C 269.039,238.867 268.039,234.367 268.5,229.5C 267.805,222.421 268.971,215.754 272,209.5C 272.824,212.882 272.657,216.216 271.5,219.5C 270.914,219.291 270.414,218.957 270,218.5C 269.171,223.533 269.338,228.533 270.5,233.5C 271.086,233.291 271.586,232.957 272,232.5C 272.333,229.167 272.667,225.833 273,222.5C 273.383,221.944 273.883,221.611 274.5,221.5 Z"/></g>
<g><path style="opacity:1" fill="#ae9b67" d="M 242.5,224.5 C 242.277,227.784 241.61,230.951 240.5,234C 241.793,234.49 243.127,234.657 244.5,234.5C 243.909,235.151 243.243,235.818 242.5,236.5C 244.766,237.314 247.1,237.814 249.5,238C 246.408,240.043 243.408,239.876 240.5,237.5C 239.417,238.365 239.251,239.365 240,240.5C 242.607,241.123 245.107,241.79 247.5,242.5C 244.753,242.187 242.086,242.52 239.5,243.5C 238.754,244.736 238.421,246.07 238.5,247.5C 235.5,247.5 232.5,247.5 229.5,247.5C 230.085,242.625 231.085,237.958 232.5,233.5C 233.793,234.842 234.626,236.509 235,238.5C 235.167,237.5 235.333,236.5 235.5,235.5C 232.989,231.858 232.989,228.192 235.5,224.5C 236.192,225.025 236.692,225.692 237,226.5C 237.667,225.167 238.333,223.833 239,222.5C 239.974,224.878 240.641,224.544 241,221.5C 241.232,222.737 241.732,223.737 242.5,224.5 Z"/></g>
<g><path style="opacity:0.988" fill="#ae9b68" d="M 65.5,230.5 C 68.5,230.5 71.5,230.5 74.5,230.5C 74.3379,232.527 74.5045,234.527 75,236.5C 75.7096,237.973 76.8762,238.64 78.5,238.5C 77.7222,239.156 77.0556,239.989 76.5,241C 78.1249,243.137 77.7916,244.803 75.5,246C 78.146,246.497 80.8127,246.664 83.5,246.5C 71.1711,248.858 65.1711,243.525 65.5,230.5 Z"/></g>
<g><path style="opacity:0.145" fill="#6b644e" d="M 276.5,211.5 C 276.5,223.5 276.5,235.5 276.5,247.5C 273.287,247.81 270.287,247.477 267.5,246.5C 270.167,246.5 272.833,246.5 275.5,246.5C 275.172,234.655 275.505,222.988 276.5,211.5 Z"/></g>
<g><path style="opacity:0.169" fill="#a3926c" d="M 101.5,202.5 C 101.5,216.833 101.5,231.167 101.5,245.5C 103.833,245.5 106.167,245.5 108.5,245.5C 108.5,231.167 108.5,216.833 108.5,202.5C 109.496,217.324 109.829,232.324 109.5,247.5C 106.5,247.5 103.5,247.5 100.5,247.5C 100.171,232.324 100.504,217.324 101.5,202.5 Z"/></g>
<g><path style="opacity:1" fill="#b29e65" d="M 101.5,202.5 C 103.833,202.5 106.167,202.5 108.5,202.5C 108.5,216.833 108.5,231.167 108.5,245.5C 106.167,245.5 103.833,245.5 101.5,245.5C 101.5,231.167 101.5,216.833 101.5,202.5 Z"/></g>
<g><path style="opacity:0.004" fill="#000000" d="M 89.5,243.5 C 90.8333,244.167 90.8333,244.167 89.5,243.5 Z"/></g>
<g><path style="opacity:0.004" fill="#000000" d="M 67.5,244.5 C 68.8333,245.167 68.8333,245.167 67.5,244.5 Z"/></g>
<g><path style="opacity:0.805" fill="#a49468" d="M 301.5,238.5 C 305.846,238.334 310.179,238.501 314.5,239C 315.833,241.667 315.833,244.333 314.5,247C 306.988,247.822 299.655,247.655 292.5,246.5C 293.167,246.5 293.5,246.167 293.5,245.5C 300.5,245.5 307.5,245.5 314.5,245.5C 314.5,243.833 314.5,242.167 314.5,240.5C 309.13,240.608 303.797,240.275 298.5,239.5C 298.392,235.753 298.892,232.086 300,228.5C 300.179,232.025 300.679,235.359 301.5,238.5 Z"/></g>
<g><path style="opacity:0.004" fill="#000000" d="M 144.5,247.5 C 145.833,248.167 145.833,248.167 144.5,247.5 Z"/></g>
<g><path style="opacity:0.004" fill="#000000" d="M 247.5,247.5 C 246.833,248.167 246.833,248.167 247.5,247.5 Z"/></g>
</svg>
