<svg xmlns="http://www.w3.org/2000/svg" width="375" height="330" version="1.1"><path fill="#B0A06B" d="M0 0 C53.46 0 106.92 0 162 0 C162 11.88 162 23.76 162 36 C170.74605456 34.59068475 170.74605456 34.59068475 175 29 C176.6454378 27.31237149 178.31288577 25.6459651 180 24 C180.825 23.154375 181.65 22.30875 182.5 21.4375 C184.89178403 19.10551057 187.39394339 17.08484529 190 15 C192.62334771 12.50462047 194.94096795 10.07813066 197.125 7.1875 C198.053125 6.1046875 198.053125 6.1046875 199 5 C199.99 5 200.98 5 202 5 C202 36.02 202 67.04 202 99 C196.85722371 96.94288948 196.1045043 96.17167765 193 92 C191.3545622 90.31237149 189.68711423 88.6459651 188 87 C183 82 183 82 180.5625 79.5 C178.68340671 77.66673825 176.84226407 76.02048835 174.8125 74.375 C172 72 172 72 170 69 C167 68.83333333 167 68.83333333 164 69 C163.34 68.67 162.68 68.34 162 68 C162 77.9 162 87.8 162 98 C111.18 98 60.36 98 8 98 C8 101.3 8 104.6 8 108 C48.26 108 88.52 108 130 108 C130 105.03 130 102.06 130 99 C132.97 99 135.94 99 139 99 C138.67 104.61 138.34 110.22 138 116 C92.46 116 46.92 116 0 116 C0 110.06 0 104.12 0 98 C-6.6 98 -13.2 98 -20 98 C-20.02255161 87.97771835 -20.04091543 77.95545343 -20.05181217 67.9331522 C-20.05704085 63.27988814 -20.06413823 58.62664226 -20.07543945 53.97338867 C-20.08626886 49.48655454 -20.09227695 44.99973796 -20.09487724 40.51289177 C-20.0967314 38.79719707 -20.10035182 37.08150338 -20.10573006 35.36581612 C-20.11294121 32.97115087 -20.11399091 30.57655904 -20.11352539 28.18188477 C-20.11712067 27.46547318 -20.12071594 26.74906158 -20.12442017 26.01094055 C-20.11405216 21.11405216 -20.11405216 21.11405216 -19 20 C-17.58429877 19.91348389 -16.164405 19.89295096 -14.74609375 19.90234375 C-13.9770874 19.90484131 -13.20808105 19.90733887 -12.41577148 19.90991211 C-11.43294189 19.91901611 -10.4501123 19.92812012 -9.4375 19.9375 C-4.7659375 19.9684375 -4.7659375 19.9684375 0 20 C0 13.4 0 6.8 0 0 Z M8 8 C8 11.96 8 15.92 8 20 C11.96 20 15.92 20 20 20 C20.495 23.96 20.495 23.96 21 28 C10.11 28 -0.78 28 -12 28 C-12 48.46 -12 68.92 -12 90 C-8.04 90 -4.08 90 0 90 C0 69.87 0 49.74 0 29 C2.64 29 5.28 29 8 29 C8 49.13 8 69.26 8 90 C56.18 90 104.36 90 154 90 C154 86.7 154 83.4 154 80 C153.11183594 79.56171875 152.22367188 79.1234375 151.30859375 78.671875 C142.8869366 74.49757436 134.52186811 70.22100549 126.1875 65.875 C124.77585571 65.13975098 124.77585571 65.13975098 123.33569336 64.38964844 C122.41409424 63.90786133 121.49249512 63.42607422 120.54296875 62.9296875 C119.63724121 62.4562793 118.73151367 61.98287109 117.79833984 61.49511719 C115.8271571 60.44193946 113.87023568 59.36185086 111.92431641 58.26269531 C110.9347998 57.70420898 109.9452832 57.14572266 108.92578125 56.5703125 C108.02899658 56.05484863 107.13221191 55.53938477 106.20825195 55.00830078 C105.47952881 54.67556152 104.75080566 54.34282227 104 54 C101.95366874 54.94362333 101.95366874 54.94362333 100.18310547 56.39770508 C97.89400931 58.07779209 95.59788111 59.34525859 93.0703125 60.63671875 C92.11672852 61.127771 91.16314453 61.61882324 90.18066406 62.12475586 C89.17229492 62.64046143 88.16392578 63.15616699 87.125 63.6875 C79.40469665 67.66734164 71.78399899 71.7280113 64.328125 76.18359375 C59.68558903 78.71737218 54.81489838 80.81140983 50 83 C50 61.55 50 40.1 50 18 C67 27 67 27 74.5625 31.0625 C80.19475522 34.07110741 85.87579714 36.95622471 91.59790039 39.78930664 C97.27539151 42.61136371 102.89044616 45.54555407 108.5 48.5 C115.34509064 52.10491677 122.21597334 55.63963503 129.15283203 59.06445312 C135.03596265 61.98260675 140.82616609 65.06945309 146.59472656 68.20751953 C150.09742427 70.27526197 150.09742427 70.27526197 154 71 C154 50.21 154 29.42 154 8 C105.82 8 57.64 8 8 8 Z M189.4375 25.375 C186.77318297 27.64723409 186.77318297 27.64723409 187 30 C186.34 30 185.68 30 185 30 C185 30.66 185 31.32 185 32 C184.34 32 183.68 32 183 32 C183 32.66 183 33.32 183 34 C182.401875 34.268125 181.80375 34.53625 181.1875 34.8125 C179.00152146 35.99917406 177.58667406 37.09599113 176 39 C176 39.66 176 40.32 176 41 C175.34 41 174.68 41 174 41 C173.67 41.66 173.34 42.32 173 43 C169.34850439 43.60383547 165.69649725 43.74506916 162 44 C162 49.61 162 55.22 162 61 C163.485 60.855625 164.97 60.71125 166.5 60.5625 C171.93763444 60.57016944 174.34275982 62.17010683 178.12890625 65.92578125 C180.54059675 68.59928367 182.91039019 71.29695833 185.1640625 74.10546875 C187.47053753 76.6191799 187.47053753 76.6191799 193 80 C193 61.19 193 42.38 193 23 C191.53992901 22.88670589 191.53992901 22.88670589 189.4375 25.375 Z M58 31 C58 44.2 58 57.4 58 71 C71.17180334 64.43172838 71.17180334 64.43172838 84.25 57.6875 C85.45076172 57.06391602 85.45076172 57.06391602 86.67578125 56.42773438 C90.32957035 54.5093426 93.80905773 52.65054076 97 50 C96.00484375 49.55011719 95.0096875 49.10023437 93.984375 48.63671875 C84.56282699 44.31798614 75.44547177 39.61658376 66.42675781 34.5065918 C65.6169043 34.0506665 64.80705078 33.59474121 63.97265625 33.125 C63.25343994 32.71507812 62.53422363 32.30515625 61.79321289 31.8828125 C60.03406681 30.85277199 60.03406681 30.85277199 58 31 Z" transform="translate(101,59)"/><path fill="#AE9C69" d="M0 0 C3.63 0 7.26 0 11 0 C13.31 6.93 15.62 13.86 18 21 C19.98 14.07 21.96 7.14 24 0 C27.96 0 31.92 0 36 0 C36 14.85 36 29.7 36 45 C33.36 45 30.72 45 28 45 C26.01783097 43.01783097 26.58949076 39.16679941 26.4375 36.4375 C26.293125 33.983125 26.14875 31.52875 26 29 C24.35 34.28 22.7 39.56 21 45 C19.35 45 17.7 45 16 45 C15.37041826 43.48105765 14.74659536 41.95972805 14.125 40.4375 C13.77695313 39.59058594 13.42890625 38.74367187 13.0703125 37.87109375 C11.86665237 34.64229743 10.94664944 31.31327304 10 28 C9.67 33.61 9.34 39.22 9 45 C6.36 45 3.72 45 1 45 C0 44 0 44 -0.12025452 42.20933533 C-0.11803391 41.42990067 -0.11581329 40.650466 -0.11352539 39.84741211 C-0.11341209 38.52615578 -0.11341209 38.52615578 -0.11329651 37.1782074 C-0.10555458 35.74227989 -0.10555458 35.74227989 -0.09765625 34.27734375 C-0.0962413 33.30213272 -0.09482635 32.32692169 -0.09336853 31.32215881 C-0.08775133 28.19390857 -0.07519593 25.06572877 -0.0625 21.9375 C-0.05748722 19.82226666 -0.05292393 17.70703219 -0.04882812 15.59179688 C-0.03777631 10.39450393 -0.02050016 5.19726392 0 0 Z" transform="translate(187,203)"/><path fill="#978755" d="M0 0 C53.46 0 106.92 0 162 0 C159.525 1.98 159.525 1.98 157 4 C156.67 4.66 156.34 5.32 156 6 C155.23578106 6.00423194 154.47156212 6.00846388 153.68418503 6.01282406 C135.09798362 6.11608192 116.51182075 6.22471241 97.92568588 6.33933926 C88.9376124 6.39464181 79.94953494 6.44811896 70.96142578 6.49731445 C63.12834745 6.54019262 55.29529799 6.58647981 47.4622643 6.63687855 C43.31388972 6.6634502 39.16552075 6.68830256 35.01711273 6.70907402 C31.1134558 6.72867382 27.20985367 6.7528276 23.3062458 6.78049088 C21.8727601 6.7898436 20.43926238 6.79752525 19.00575829 6.80341911 C17.04969272 6.81171043 15.09365831 6.82657589 13.13763428 6.84178162 C11.49499918 6.85146044 11.49499918 6.85146044 9.81917953 6.8613348 C7.37161417 6.98172165 5.35473626 7.40025419 3 8 C2.67 7.67 2.34 7.34 2 7 C2 11.95 2 16.9 2 22 C-1.63 22 -5.26 22 -9 22 C-9 21.67 -9 21.34 -9 21 C-6.03 21 -3.06 21 0 21 C0 14.07 0 7.14 0 0 Z" transform="translate(101,59)"/><path fill="#AF9E69" d="M0 0 C2.64 0 5.28 0 8 0 C11.88254666 6.44439097 14.56680007 12.88063724 17 20 C17.33 13.4 17.66 6.8 18 0 C20.64 0 23.28 0 26 0 C26 14.85 26 29.7 26 45 C23.36 45 20.72 45 18 45 C17.03761964 42.96023786 16.08027473 40.91809954 15.125 38.875 C14.59132812 37.73804688 14.05765625 36.60109375 13.5078125 35.4296875 C12 32 12 32 10 26 C9.67 32.27 9.34 38.54 9 45 C6.36 45 3.72 45 1 45 C0 44 0 44 -0.12025452 42.20933533 C-0.11803391 41.42990067 -0.11581329 40.650466 -0.11352539 39.84741211 C-0.11341209 38.52615578 -0.11341209 38.52615578 -0.11329651 37.1782074 C-0.10555458 35.74227989 -0.10555458 35.74227989 -0.09765625 34.27734375 C-0.0962413 33.30213272 -0.09482635 32.32692169 -0.09336853 31.32215881 C-0.08775133 28.19390857 -0.07519593 25.06572877 -0.0625 21.9375 C-0.05748722 19.82226666 -0.05292393 17.70703219 -0.04882812 15.59179688 C-0.03777631 10.39450704 -0.02102146 5.19725855 0 0 Z" transform="translate(119,203)"/><path fill="#A08F5C" d="M0 0 C0.99 0 1.98 0 3 0 C3 31.02 3 62.04 3 94 C-2.14277629 91.94288948 -2.8954957 91.17167765 -6 87 C-7.6454378 85.31237149 -9.31288577 83.6459651 -11 82 C-15.88888889 77.22222222 -15.88888889 77.22222222 -17 75 C-16.0625 72.875 -16.0625 72.875 -15 71 C-12.6875 70.8125 -12.6875 70.8125 -10 71 C-9.01 71.99 -8.02 72.98 -7 74 C-7 55.85 -7 37.7 -7 19 C-8.65 20.98 -10.3 22.96 -12 25 C-15.8125 24.875 -15.8125 24.875 -19 24 C-19.33 24.99 -19.66 25.98 -20 27 C-21.65 27.33 -23.3 27.66 -25 28 C-24.52406444 23.71657993 -22.05238315 21.84426611 -19 19 C-18.175 18.154375 -17.35 17.30875 -16.5 16.4375 C-14.10821597 14.10551057 -11.60605661 12.08484529 -9 10 C-6.37665229 7.50462047 -4.05903205 5.07813066 -1.875 2.1875 C-1.25625 1.465625 -0.6375 0.74375 0 0 Z" transform="translate(300,64)"/><path fill="#AF9D68" d="M0 0 C3.72026926 2.70565037 5.27930684 5.68876804 6.75 10 C7.0625 12.9375 7.0625 12.9375 6.75 15 C5.75 16 5.75 16 3.90234375 16.09765625 C1.8515625 16.06510417 -0.19921875 16.03255208 -2.25 16 C-2.58 13.36 -2.91 10.72 -3.25 8 C-5.56 8.33 -7.87 8.66 -10.25 9 C-10.54170908 11.8017367 -10.54170908 11.8017367 -9.25 15 C-6.85595649 16.72265123 -4.35356719 18.08044378 -1.76953125 19.5 C2.63073988 22.1196963 5.07433256 25.01522689 6.75 29.9375 C6.75 35.29905488 4.36648545 40.08214076 0.75 44 C-3.5944913 45.44816377 -7.70983523 45.51576272 -12.25 45 C-16.60344121 42.59171337 -18.52694416 39.62504462 -20.25 35 C-20.4375 31.125 -20.4375 31.125 -20.25 28 C-17.28 28 -14.31 28 -11.25 28 C-10.92 30.64 -10.59 33.28 -10.25 36 C-7.94 36 -5.63 36 -3.25 36 C-3.06731245 33.0161033 -3.00691253 31.65709948 -4.25 29 C-6.87478181 26.95802336 -9.57279949 25.36936209 -12.48828125 23.7734375 C-16.0640942 21.47722947 -18.35232665 18.79534671 -20.25 15 C-20.2942316 10.49722327 -19.81748767 6.9197214 -17.4375 3.0625 C-12.20503531 -1.87096671 -6.71754185 -2.06693595 0 0 Z" transform="translate(86.25,203)"/><path fill="#AF9D69" d="M0 0 C1.65322266 0.01740234 1.65322266 0.01740234 3.33984375 0.03515625 C4.99693359 0.04869141 4.99693359 0.04869141 6.6875 0.0625 C7.54214844 0.07410156 8.39679688 0.08570313 9.27734375 0.09765625 C11.27746858 11.89976791 13.25905226 23.70542664 15.08984375 35.53515625 C15.22559814 36.38625977 15.36135254 37.23736328 15.5012207 38.11425781 C15.80367199 40.10256063 16.04722277 42.09968998 16.27734375 44.09765625 C15.27734375 45.09765625 15.27734375 45.09765625 13.4296875 45.1953125 C11.37890625 45.16276042 9.328125 45.13020833 7.27734375 45.09765625 C7.27734375 43.44765625 7.27734375 41.79765625 7.27734375 40.09765625 C4.63734375 40.09765625 1.99734375 40.09765625 -0.72265625 40.09765625 C-1.21765625 42.57265625 -1.21765625 42.57265625 -1.72265625 45.09765625 C-4.69265625 45.09765625 -7.66265625 45.09765625 -10.72265625 45.09765625 C-9.43449657 35.80353437 -8.02876018 26.5350871 -6.49047852 17.27905273 C-6.15300988 15.2420192 -5.8216349 13.20404414 -5.49023438 11.16601562 C-5.27689453 9.87888672 -5.06355469 8.59175781 -4.84375 7.265625 C-4.65224365 6.10313232 -4.4607373 4.94063965 -4.26342773 3.74291992 C-3.52410277 0.12640254 -3.52410277 0.12640254 0 0 Z M2.27734375 18.09765625 C1.61734375 22.71765625 0.95734375 27.33765625 0.27734375 32.09765625 C1.92734375 32.09765625 3.57734375 32.09765625 5.27734375 32.09765625 C4.61734375 27.47765625 3.95734375 22.85765625 3.27734375 18.09765625 C2.94734375 18.09765625 2.61734375 18.09765625 2.27734375 18.09765625 Z" transform="translate(240.72265625,202.90234375)"/><path fill="#A9965F" d="M0 0 C0.33 0 0.66 0 1 0 C1.33 1.65 1.66 3.3 2 5 C2.50674255 4.83734146 3.01348511 4.67468292 3.5355835 4.50709534 C6.83735068 3.82770095 10.07600634 3.86915255 13.43066406 3.88647461 C14.17251953 3.88632858 14.914375 3.88618256 15.67871094 3.8860321 C18.12437897 3.88672731 20.56997031 3.89450134 23.015625 3.90234375 C24.71384642 3.90420932 26.41206838 3.90563257 28.11029053 3.90663147 C32.57533255 3.91044568 37.04034194 3.92026661 41.50537109 3.93133545 C46.06347207 3.94157313 50.62157833 3.94613414 55.1796875 3.95117188 C64.11980599 3.96188986 73.05990028 3.97895313 82 4 C82 4.33 82 4.66 82 5 C57.25 5 32.5 5 7 5 C7 9.29 7 13.58 7 18 C10.96 18 14.92 18 19 18 C20.35439668 20.70879335 20.06501451 23.00933268 20 26 C15.78271077 26.16777849 11.56522682 26.32832034 7.34741211 26.48217773 C5.91276652 26.53552897 4.47819286 26.5908529 3.04370117 26.64819336 C0.98111481 26.730297 -1.08162668 26.80528996 -3.14453125 26.87890625 C-5.00621948 26.94960327 -5.00621948 26.94960327 -6.90551758 27.02172852 C-10 27 -10 27 -13 26 C-13 46.46 -13 66.92 -13 88 C-13.33 88 -13.66 88 -14 88 C-14.33 85.36 -14.66 82.72 -15 80 C-17.58926331 82.58926331 -17.37398043 84.02705279 -17.625 87.625 C-17.69976562 88.62789063 -17.77453125 89.63078125 -17.8515625 90.6640625 C-17.90054688 91.43492187 -17.94953125 92.20578125 -18 93 C-18.33 93 -18.66 93 -19 93 C-19.02312504 83.62964062 -19.04091591 74.25929099 -19.05181217 64.88890934 C-19.05704065 60.53831541 -19.06413765 56.18774093 -19.07543945 51.8371582 C-19.08626959 47.64209742 -19.0922771 43.44705541 -19.09487724 39.25198174 C-19.09673126 37.64793032 -19.10035144 36.04387997 -19.10573006 34.4398365 C-19.11294219 32.20083485 -19.11399087 29.9619117 -19.11352539 27.72290039 C-19.115746 26.44604874 -19.11796661 25.16919708 -19.12025452 23.85365295 C-19 21 -19 21 -18 20 C-11.49376737 18.79514211 -5.54637991 19.21780387 1 20 C0.67 19.34 0.34 18.68 0 18 C-0.08308638 16.62451844 -0.10736016 15.24514204 -0.09765625 13.8671875 C-0.09443359 13.06152344 -0.09121094 12.25585938 -0.08789062 11.42578125 C-0.07951172 10.58402344 -0.07113281 9.74226563 -0.0625 8.875 C-0.05798828 8.02550781 -0.05347656 7.17601563 -0.04882812 6.30078125 C-0.03702874 4.20049091 -0.01909306 2.1002367 0 0 Z" transform="translate(102,61)"/><path fill="#AC9965" d="M0 0 C7.59 0 15.18 0 23 0 C23 2.64 23 5.28 23 8 C18.38 8 13.76 8 9 8 C9 10.97 9 13.94 9 17 C12.96 17 16.92 17 21 17 C21 19.97 21 22.94 21 26 C17.04 26 13.08 26 9 26 C9 29.3 9 32.6 9 36 C10.39025391 35.98259766 10.39025391 35.98259766 11.80859375 35.96484375 C13.00613281 35.95582031 14.20367187 35.94679687 15.4375 35.9375 C16.63246094 35.92589844 17.82742188 35.91429687 19.05859375 35.90234375 C22 36 22 36 23 37 C23.125 40.5 23.125 40.5 23 44 C22.67 44.33 22.34 44.66 22 45 C14.74 45 7.48 45 0 45 C0 30.15 0 15.3 0 0 Z" transform="translate(293,203)"/><path fill="#A89663" d="M0 0 C7.59 0 15.18 0 23 0 C23 2.64 23 5.28 23 8 C18.38 8 13.76 8 9 8 C9 10.97 9 13.94 9 17 C12.96 17 16.92 17 21 17 C21 19.97 21 22.94 21 26 C17.04 26 13.08 26 9 26 C9 29.3 9 32.6 9 36 C10.39025391 35.98259766 10.39025391 35.98259766 11.80859375 35.96484375 C13.00613281 35.95582031 14.20367187 35.94679687 15.4375 35.9375 C16.63246094 35.92589844 17.82742187 35.91429687 19.05859375 35.90234375 C22 36 22 36 23 37 C23.125 40.5 23.125 40.5 23 44 C21.37799485 45.62200515 19.57976969 45.1299075 17.34375 45.1328125 C15.93416016 45.13474609 15.93416016 45.13474609 14.49609375 45.13671875 C13.50738281 45.13285156 12.51867187 45.12898438 11.5 45.125 C10.51128906 45.12886719 9.52257812 45.13273437 8.50390625 45.13671875 C7.56417969 45.13542969 6.62445313 45.13414062 5.65625 45.1328125 C4.78806641 45.13168457 3.91988281 45.13055664 3.02539062 45.12939453 C1 45 1 45 0 44 C-0.0927833 42.61839885 -0.11747043 41.23211962 -0.11352539 39.84741211 C-0.11341209 38.52615578 -0.11341209 38.52615578 -0.11329651 37.1782074 C-0.10555458 35.74227989 -0.10555458 35.74227989 -0.09765625 34.27734375 C-0.0962413 33.30213272 -0.09482635 32.32692169 -0.09336853 31.32215881 C-0.08775133 28.19390857 -0.07519593 25.06572877 -0.0625 21.9375 C-0.05748722 19.82226666 -0.05292393 17.70703219 -0.04882812 15.59179688 C-0.03862531 10.39448199 -0.01905331 5.19732025 0 0 Z" transform="translate(155,203)"/><path fill="#A99764" d="M0 0 C8.58 0 17.16 0 26 0 C26 2.64 26 5.28 26 8 C23.03 8 20.06 8 17 8 C17 20.21 17 32.42 17 45 C14.03 45 11.06 45 8 45 C8 32.79 8 20.58 8 8 C5.36 8 2.72 8 0 8 C0 5.36 0 2.72 0 0 Z" transform="translate(260,203)"/><path fill="#B29E65" d="M0 0 C2.97 0 5.94 0 9 0 C9 14.85 9 29.7 9 45 C6.03 45 3.06 45 0 45 C0 30.15 0 15.3 0 0 Z" transform="translate(101,203)"/><path fill="#AC9A67" d="M0 0 C0.33 0 0.66 0 1 0 C1.33 1.65 1.66 3.3 2 5 C2.76011383 4.75601219 2.76011383 4.75601219 3.5355835 4.50709534 C6.83735068 3.82770095 10.07600634 3.86915255 13.43066406 3.88647461 C14.54344727 3.88625557 14.54344727 3.88625557 15.67871094 3.8860321 C18.12437897 3.88672731 20.56997031 3.89450134 23.015625 3.90234375 C24.71384642 3.90420932 26.41206838 3.90563257 28.11029053 3.90663147 C32.57533255 3.91044568 37.04034194 3.92026661 41.50537109 3.93133545 C46.06347207 3.94157313 50.62157833 3.94613414 55.1796875 3.95117188 C64.11980599 3.96188986 73.05990028 3.97895313 82 4 C82 4.33 82 4.66 82 5 C57.25 5 32.5 5 7 5 C7 9.29 7 13.58 7 18 C10.96 18 14.92 18 19 18 C20 20 20 20 20 26 C10.1 26.33 0.2 26.66 -10 27 C-10.33 25.68 -10.66 24.36 -11 23 C-7.7 23 -4.4 23 -1 23 C-1 22.01 -1 21.02 -1 20 C-0.34 20 0.32 20 1 20 C0.67 19.34 0.34 18.68 0 18 C-0.08308638 16.62451844 -0.10736016 15.24514204 -0.09765625 13.8671875 C-0.09443359 13.06152344 -0.09121094 12.25585938 -0.08789062 11.42578125 C-0.07951172 10.58402344 -0.07113281 9.74226563 -0.0625 8.875 C-0.05798828 8.02550781 -0.05347656 7.17601563 -0.04882812 6.30078125 C-0.03702874 4.20049091 -0.01909306 2.1002367 0 0 Z" transform="translate(102,61)"/><path fill="#A49360" d="M0 0 C0.33 0 0.66 0 1 0 C1 13.53 1 27.06 1 41 C2.32 41 3.64 41 5 41 C5 35.72 5 30.44 5 25 C5.66 24.67 6.32 24.34 7 24 C7 27.63 7 31.26 7 35 C8.49853516 34.98259766 8.49853516 34.98259766 10.02734375 34.96484375 C11.31769531 34.95582031 12.60804688 34.94679687 13.9375 34.9375 C15.22527344 34.92589844 16.51304687 34.91429687 17.83984375 34.90234375 C21 35 21 35 22 36 C22.125 39.5 22.125 39.5 22 43 C21.67 43.33 21.34 43.66 21 44 C13.74 44 6.48 44 -1 44 C-0.67 29.48 -0.34 14.96 0 0 Z" transform="translate(294,204)"/><path fill="#B29C67" d="M0 0 C0.99 0 1.98 0 3 0 C3 31.02 3 62.04 3 94 C1.68 93.67 0.36 93.34 -1 93 C-1.02314534 81.31727359 -1.04092631 69.63455262 -1.05181217 57.95180798 C-1.05703618 52.52735269 -1.06412514 47.10291307 -1.07543945 41.6784668 C-1.08628537 36.44598041 -1.09228047 31.2135091 -1.09487724 25.98101234 C-1.0967284 23.98228022 -1.10034313 21.98354895 -1.10573006 19.98482323 C-1.11296306 17.19062881 -1.11398998 14.39649715 -1.11352539 11.60229492 C-1.11712067 10.77151428 -1.12071594 9.94073364 -1.12442017 9.08477783 C-1.1184839 5.79680567 -1.04726152 3.14178456 0 0 Z" transform="translate(300,64)"/><path fill="#BAAA74" d="M0 0 C7.59 0 15.18 0 23 0 C23 2.64 23 5.28 23 8 C18.38 8 13.76 8 9 8 C9 7.34 9 6.68 9 6 C8.01 6 7.02 6 6 6 C5.67 5.34 5.34 4.68 5 4 C4.01 4.66 3.02 5.32 2 6 C1.66232958 8.90156324 1.51091656 11.5999689 1.48828125 14.5078125 C1.47033005 15.34843231 1.45237885 16.18905212 1.43388367 17.05514526 C1.37961969 19.74504551 1.34583414 22.43476676 1.3125 25.125 C1.27934105 26.94663959 1.24485273 28.7682555 1.20898438 30.58984375 C1.12388428 35.05976695 1.05715044 39.52963559 1 44 C0.67 44 0.34 44 0 44 C0 29.48 0 14.96 0 0 Z" transform="translate(293,203)"/><path fill="#B0A27B" d="M0 0 C1.18613892 0.00785522 1.18613892 0.00785522 2.39624023 0.01586914 C3.67724609 0.02070312 3.67724609 0.02070312 4.98413086 0.02563477 C5.88196289 0.03401367 6.77979492 0.04239258 7.70483398 0.05102539 C8.6065332 0.05553711 9.50823242 0.06004883 10.43725586 0.06469727 C12.67234712 0.07652315 14.90730835 0.09300319 17.14233398 0.11352539 C17.14233398 0.44352539 17.14233398 0.77352539 17.14233398 1.11352539 C11.53233398 1.77352539 5.92233398 2.43352539 0.14233398 3.11352539 C-0.18766602 27.86352539 -0.51766602 52.61352539 -0.85766602 78.11352539 C-1.51766602 78.11352539 -2.17766602 78.11352539 -2.85766602 78.11352539 C-2.88079011 68.09124776 -2.89858144 58.06897642 -2.90947819 48.04667759 C-2.91470687 43.39341353 -2.92180424 38.74016765 -2.93310547 34.08691406 C-2.94393488 29.60007993 -2.94994296 25.11326335 -2.95254326 20.62641716 C-2.95439741 18.91072246 -2.95801784 17.19502878 -2.96339607 15.47934151 C-2.97060723 13.08467626 -2.97165693 10.69008443 -2.97119141 8.29541016 C-2.97478668 7.57899857 -2.97838196 6.86258698 -2.98208618 6.12446594 C-2.9695033 0.18147181 -2.9695033 0.18147181 0 0 Z" transform="translate(83.857666015625,78.886474609375)"/><path fill="#AD9B66" d="M0 0 C3.15892555 -0.55281197 5.23861702 -0.51681754 7.93359375 1.3125 C10.02984253 3.14314221 12.02266083 5.04163722 14 7 C14.68191406 7.64453125 15.36382812 8.2890625 16.06640625 8.953125 C19.64134902 12.39084774 19.64134902 12.39084774 21 14 C21 14.66 21 15.32 21 16 C20.01 16.33 19.02 16.66 18 17 C17.67 17.99 17.34 18.98 17 20 C13.97484531 19.67587628 13.08758661 19.10171348 11.0625 16.75 C10.381875 15.8425 9.70125 14.935 9 14 C5.64317135 9.88461254 5.64317135 9.88461254 0.6875 8.6875 C-0.199375 8.790625 -1.08625 8.89375 -2 9 C-2 8.34 -2 7.68 -2 7 C-0.02 7 1.96 7 4 7 C4.33 5.35 4.66 3.7 5 2 C3.02 2 1.04 2 -1 2 C-0.67 1.34 -0.34 0.68 0 0 Z" transform="translate(267,119)"/><path fill="#A2956D" d="M0 0 C2.475 0.99 2.475 0.99 5 2 C4.01 2.33 3.02 2.66 2 3 C2 22.8 2 42.6 2 63 C2.99 63.33 3.98 63.66 5 64 C2.525 64.495 2.525 64.495 0 65 C0 43.55 0 22.1 0 0 Z" transform="translate(151,77)"/><path fill="#BFAE82" d="M0 0 C7.59 0 15.18 0 23 0 C23 2.64 23 5.28 23 8 C16.07 7.505 16.07 7.505 9 7 C9 6.67 9 6.34 9 6 C11.64 6 14.28 6 17 6 C17.33 5.01 17.66 4.02 18 3 C12.39 2.67 6.78 2.34 1 2 C1 15.53 1 29.06 1 43 C0.67 43 0.34 43 0 43 C0 28.81 0 14.62 0 0 Z" transform="translate(155,203)"/><path fill="#A2936D" d="M0 0 C0.33 0 0.66 0 1 0 C1 14.19 1 28.38 1 43 C2.98 43 4.96 43 7 43 C7.33 28.81 7.66 14.62 8 0 C8.33 0 8.66 0 9 0 C9 14.85 9 29.7 9 45 C6.03 45 3.06 45 0 45 C0 30.15 0 15.3 0 0 Z" transform="translate(101,203)"/><path fill="#B5A36C" d="M0 0 C2.475 0.495 2.475 0.495 5 1 C5 1.66 5 2.32 5 3 C4.34 3 3.68 3 3 3 C3 3.66 3 4.32 3 5 C0.625 7.625 0.625 7.625 -2 10 C-2.66 10 -3.32 10 -4 10 C-4 10.66 -4 11.32 -4 12 C-4.66 12 -5.32 12 -6 12 C-6.33 12.66 -6.66 13.32 -7 14 C-7 12.68 -7 11.36 -7 10 C-7.62648438 9.95101562 -8.25296875 9.90203125 -8.8984375 9.8515625 C-10.12433594 9.73941406 -10.12433594 9.73941406 -11.375 9.625 C-12.18710937 9.55539063 -12.99921875 9.48578125 -13.8359375 9.4140625 C-16 9 -16 9 -18 7 C-17.07767578 6.85304688 -17.07767578 6.85304688 -16.13671875 6.703125 C-11.00590695 5.86708954 -11.00590695 5.86708954 -6.9375 2.875 C-6.628125 2.25625 -6.31875 1.6375 -6 1 C-5.34 1.33 -4.68 1.66 -4 2 C-3.01 2 -2.02 2 -1 2 C-0.67 1.34 -0.34 0.68 0 0 Z" transform="translate(281,88)"/><path fill="#AB995C" d="M0 0 C0.33 0 0.66 0 1 0 C1 12.21 1 24.42 1 37 C1.99 37 2.98 37 4 37 C3.97679688 35.94039062 3.95359375 34.88078125 3.9296875 33.7890625 C3.91093056 32.4010487 3.89273028 31.0130273 3.875 29.625 C3.85824219 28.92632812 3.84148437 28.22765625 3.82421875 27.5078125 C3.80655733 25.67102514 3.89696739 23.83398037 4 22 C4.66 21.34 5.32 20.68 6 20 C6.33 26.6 6.66 33.2 7 40 C4.36 40 1.72 40 -1 40 C-0.67 26.8 -0.34 13.6 0 0 Z" transform="translate(121,208)"/><path fill="#B6A36F" d="M0 0 C3.18141867 -0.46557346 5.25343123 -0.50963377 7.95703125 1.3359375 C9.6935608 2.84258024 11.369718 4.37936464 13 6 C12.67 7.65 12.34 9.3 12 11 C11.67 10.34 11.34 9.68 11 9 C10.01 9.33 9.02 9.66 8 10 C8.33 10.99 8.66 11.98 9 13 C6 12 6 12 4 9 C0.91634129 8.7497843 0.91634129 8.7497843 -2 9 C-2 8.34 -2 7.68 -2 7 C-0.02 7 1.96 7 4 7 C4.33 5.35 4.66 3.7 5 2 C3.02 2 1.04 2 -1 2 C-0.67 1.34 -0.34 0.68 0 0 Z" transform="translate(267,119)"/><path fill="#AE9B61" d="M0 0 C0.598125 0.20625 1.19625 0.4125 1.8125 0.625 C1.8125 1.285 1.8125 1.945 1.8125 2.625 C2.575625 2.41875 3.33875 2.2125 4.125 2 C6.8125 1.625 6.8125 1.625 9.8125 3.625 C9.46630961 6.22142796 9.14904288 7.33831532 7.125 9.0625 C4.8125 9.625 4.8125 9.625 1.8125 8.5625 C-1.28332738 6.56311149 -3.08124384 4.62236454 -5.1875 1.625 C-2.1875 -0.375 -2.1875 -0.375 0 0 Z" transform="translate(221.1875,115.375)"/><path fill="#A69157" d="M0 0 C0.33 0 0.66 0 1 0 C1 20.13 1 40.26 1 61 C-0.485 61.495 -0.485 61.495 -2 62 C-1.67 61.01 -1.34 60.02 -1 59 C-0.88340066 57.08345949 -0.82333251 55.16327847 -0.79467773 53.2434082 C-0.7647599 51.47191154 -0.7647599 51.47191154 -0.73423767 49.66462708 C-0.71752518 48.38955795 -0.70081268 47.11448883 -0.68359375 45.80078125 C-0.66281265 44.49545944 -0.64203156 43.19013763 -0.62062073 41.84526062 C-0.56547727 38.37817647 -0.51603405 34.91103354 -0.46777344 31.44384766 C-0.4175019 27.90456931 -0.36184537 24.36537611 -0.30664062 20.82617188 C-0.19915362 13.88418844 -0.09768773 6.94212806 0 0 Z" transform="translate(256,70)"/><path fill="#B8A86F" d="M0 0 C8.58 0 17.16 0 26 0 C26 2.64 26 5.28 26 8 C25.67 8 25.34 8 25 8 C25 5.69 25 3.38 25 1 C18.565 1.495 18.565 1.495 12 2 C12 2.33 12 2.66 12 3 C7.545 3.495 7.545 3.495 3 4 C3 3.34 3 2.68 3 2 C2.34 1.67 1.68 1.34 1 1 C1 3.31 1 5.62 1 8 C0.67 8 0.34 8 0 8 C0 5.36 0 2.72 0 0 Z" transform="translate(260,203)"/><path fill="#B4A371" d="M0 0 C2.25 -0.3125 2.25 -0.3125 5 0 C7.3125 2.5 7.3125 2.5 9 5 C7.865625 5.28875 6.73125 5.5775 5.5625 5.875 C4.386875 6.24625 3.21125 6.6175 2 7 C1.67 7.66 1.34 8.32 1 9 C-0.625 6.75 -0.625 6.75 -2 4 C-1.1875 1.6875 -1.1875 1.6875 0 0 Z" transform="translate(285,135)"/><path fill="#BDAC7C" d="M0 0 C0.66 0.33 1.32 0.66 2 1 C1.42415568 3.38564077 0.77772405 5.66682784 0 8 C0.66 8 1.32 8 2 8 C2 8.99 2 9.98 2 11 C1.34 11 0.68 11 0 11 C-0.33 11.66 -0.66 12.32 -1 13 C-1 11.68 -1 10.36 -1 9 C-1.62648438 8.95101562 -2.25296875 8.90203125 -2.8984375 8.8515625 C-4.12433594 8.73941406 -4.12433594 8.73941406 -5.375 8.625 C-6.18710937 8.55539063 -6.99921875 8.48578125 -7.8359375 8.4140625 C-10 8 -10 8 -12 6 C-11.07767578 5.85304688 -11.07767578 5.85304688 -10.13671875 5.703125 C-5.00590695 4.86708954 -5.00590695 4.86708954 -0.9375 1.875 C-0.628125 1.25625 -0.31875 0.6375 0 0 Z" transform="translate(275,89)"/><path fill="#A59664" d="M0 0 C1.22589844 0.01353516 1.22589844 0.01353516 2.4765625 0.02734375 C3.41628906 0.04474609 3.41628906 0.04474609 4.375 0.0625 C2.75 1.625 2.75 1.625 0.375 3.0625 C-2.875 2.75 -2.875 2.75 -5.625 2.0625 C-5.625 3.0525 -5.625 4.0425 -5.625 5.0625 C-4.635 5.3925 -3.645 5.7225 -2.625 6.0625 C-3.285 6.0625 -3.945 6.0625 -4.625 6.0625 C-4.625 8.0425 -4.625 10.0225 -4.625 12.0625 C-5.945 12.3925 -7.265 12.7225 -8.625 13.0625 C-8.344172 11.08176635 -8.05003386 9.10291552 -7.75 7.125 C-7.58757812 6.02285156 -7.42515625 4.92070312 -7.2578125 3.78515625 C-7.04898438 2.88667969 -6.84015625 1.98820313 -6.625 1.0625 C-4.21954362 -0.14022819 -2.67503047 -0.03821472 0 0 Z" transform="translate(243.625,203.9375)"/><path fill="#A7945E" d="M0 0 C2.31 0.66 4.62 1.32 7 2 C6.67 3.65 6.34 5.3 6 7 C2.7 7.33 -0.6 7.66 -4 8 C-3.67 7.34 -3.34 6.68 -3 6 C-2.34 6 -1.68 6 -1 6 C-1.33 5.01 -1.66 4.02 -2 3 C-1.34 3 -0.68 3 0 3 C0 2.01 0 1.02 0 0 Z" transform="translate(265,119)"/><path fill="#B19F6C" d="M0 0 C0 0.66 0 1.32 0 2 C0.99 2.33 1.98 2.66 3 3 C3.33 4.65 3.66 6.3 4 8 C2.51800098 7.55090939 1.03944764 7.09043436 -0.4375 6.625 C-1.26121094 6.36976562 -2.08492187 6.11453125 -2.93359375 5.8515625 C-5 5 -5 5 -6 3 C-3.375 0 -3.375 0 0 0 Z" transform="translate(194,101)"/><path fill="#B8A774" d="M0 0 C1.6266848 0.28211877 3.25132896 0.57602375 4.875 0.875 C5.77992188 1.03742188 6.68484375 1.19984375 7.6171875 1.3671875 C10 2 10 2 12 4 C10.35 4.33 8.7 4.66 7 5 C6.67 4.34 6.34 3.68 6 3 C4.68 3.33 3.36 3.66 2 4 C2.66 5.32 3.32 6.64 4 8 C-1.75 6.25 -1.75 6.25 -4 4 C-2.68 3.34 -1.36 2.68 0 2 C0 1.34 0 0.68 0 0 Z" transform="translate(216,113)"/><path fill="#9D9371" d="M0 0 C1.32 0.99 2.64 1.98 4 3 C3.38125 3.04125 2.7625 3.0825 2.125 3.125 C1.42375 3.41375 0.7225 3.7025 0 4 C-1.3045656 6.99615946 -1.3045656 6.99615946 -2 10 C-4.97 10 -7.94 10 -11 10 C-10.67 9.01 -10.34 8.02 -10 7 C-7.69 7.33 -5.38 7.66 -3 8 C-3 6.35 -3 4.7 -3 3 C-2.34 3 -1.68 3 -1 3 C-0.67 2.01 -0.34 1.02 0 0 Z" transform="translate(241,238)"/><path fill="#B7A774" d="M0 0 C0.99 0.66 1.98 1.32 3 2 C1.35 2 -0.3 2 -2 2 C-1.34 3.32 -0.68 4.64 0 6 C-0.639375 6.12375 -1.27875 6.2475 -1.9375 6.375 C-2.9584375 6.684375 -2.9584375 6.684375 -4 7 C-4.33 7.66 -4.66 8.32 -5 9 C-6.32 7.68 -7.64 6.36 -9 5 C-3.375 1.125 -3.375 1.125 0 0 Z" transform="translate(79,239)"/><path fill="#A19265" d="M0 0 C0.33 0 0.66 0 1 0 C1.33 6.6 1.66 13.2 2 20 C-0.64 20 -3.28 20 -6 20 C-5.67 19.34 -5.34 18.68 -5 18 C-3.35 18 -1.7 18 0 18 C0 12.06 0 6.12 0 0 Z" transform="translate(126,228)"/><path fill="#B8A86C" d="M0 0 C13.365 0.495 13.365 0.495 27 1 C27 1.33 27 1.66 27 2 C18.75 2 10.5 2 2 2 C1.67 2.66 1.34 3.32 1 4 C0.67 2.68 0.34 1.36 0 0 Z" transform="translate(91,84)"/><path fill="#C2B480" d="M0 0 C2.6875 -0.3125 2.6875 -0.3125 6 0 C8.875 2.5 8.875 2.5 11 5 C8.50907189 6.24546405 7.58919267 5.7767578 5 5 C5 4.01 5 3.02 5 2 C3.02 2 1.04 2 -1 2 C-0.67 1.34 -0.34 0.68 0 0 Z" transform="translate(267,119)"/><path fill="#B5A373" d="M0 0 C1 3 1 3 0.25 4.9375 C-1.04403535 7.07265833 -2.4580985 9.03757991 -4 11 C-4.33 10.01 -4.66 9.02 -5 8 C-5.99 8.495 -5.99 8.495 -7 9 C-5.44499019 5.18315774 -2.96404505 2.80804268 0 0 Z" transform="translate(299,65)"/><path fill="#B2A471" d="M0 0 C2.31 0.33 4.62 0.66 7 1 C8.60339848 4.11771927 9.18974141 5.39011689 8.125 8.8125 C7.75375 9.534375 7.3825 10.25625 7 11 C6 9 6 9 5.75 6.625 C4.75091202 3.12819206 2.92827378 2.02726646 0 0 Z" transform="translate(77,228)"/><path fill="#9E884D" d="M0 0 C0.99 0.33 1.98 0.66 3 1 C2.67 1.66 2.34 2.32 2 3 C1.84876169 4.5195764 1.75118307 6.04472502 1.68359375 7.5703125 C1.64169922 8.46621094 1.59980469 9.36210937 1.55664062 10.28515625 C1.51732422 11.22230469 1.47800781 12.15945312 1.4375 13.125 C1.39431641 14.06988281 1.35113281 15.01476562 1.30664062 15.98828125 C1.20040928 18.32537092 1.09836824 20.6625683 1 23 C0.67 23 0.34 23 0 23 C0 15.41 0 7.82 0 0 Z" transform="translate(194,223)"/><path fill="#B8A67E" d="M0 0 C3.77545388 1.09068668 6.47043472 1.9083091 9 5 C7.02 5 5.04 5 3 5 C3 4.01 3 3.02 3 2 C2.01 1.67 1.02 1.34 0 1 C0 0.67 0 0.34 0 0 Z M2 5 C2.33 6.32 2.66 7.64 3 9 C1.68 8.67 0.36 8.34 -1 8 C-0.01 7.01 0.98 6.02 2 5 Z" transform="translate(228,117)"/><path fill="#998E53" d="M0 0 C1.20628008 2.33214148 2.1654738 4.49642139 3 7 C2.0625 9.6875 2.0625 9.6875 1 12 C0.67 12 0.34 12 0 12 C-0.19401633 10.18818595 -0.38004375 8.37551468 -0.5625 6.5625 C-0.66691406 5.55316406 -0.77132812 4.54382813 -0.87890625 3.50390625 C-0.91886719 2.67761719 -0.95882812 1.85132813 -1 1 C-0.67 0.67 -0.34 0.34 0 0 Z" transform="translate(244,216)"/><path fill="#9B8C62" d="M0 0 C0.33 1.32 0.66 2.64 1 4 C2.32 4 3.64 4 5 4 C5 4.66 5 5.32 5 6 C3.35 6 1.7 6 0 6 C-0.66 4.35 -1.32 2.7 -2 1 C-1.34 0.67 -0.68 0.34 0 0 Z" transform="translate(203,242)"/><path fill="#AB975A" d="M0 0 C1.21816406 0.03480469 1.21816406 0.03480469 2.4609375 0.0703125 C3.68683594 0.09738281 3.68683594 0.09738281 4.9375 0.125 C5.87722656 0.15980469 5.87722656 0.15980469 6.8359375 0.1953125 C5.2734375 1.7578125 5.2734375 1.7578125 2.8359375 3.1953125 C-0.9140625 2.8828125 -0.9140625 2.8828125 -4.1640625 2.1953125 C-2.1640625 0.1953125 -2.1640625 0.1953125 0 0 Z" transform="translate(241.1640625,203.8046875)"/><path fill="#A4935C" d="M0 0 C3.68754757 0.49831724 5.60490662 1.10067643 8 4 C7.01 4.495 7.01 4.495 6 5 C3.96855359 4.06553465 1.96466413 3.06775224 0 2 C0 1.34 0 0.68 0 0 Z" transform="translate(220,120)"/><path fill="#B7A87D" d="M0 0 C1.6498275 0.42218816 3.29483665 0.86324425 4.9375 1.3125 C6.31228516 1.67794922 6.31228516 1.67794922 7.71484375 2.05078125 C8.46894531 2.36402344 9.22304687 2.67726563 10 3 C10.33 3.99 10.66 4.98 11 6 C6.95743617 4.77782954 3.50711041 3.37245704 0 1 C0 0.67 0 0.34 0 0 Z" transform="translate(163,91)"/><path fill="#A8996B" d="M0 0 C0.66 0 1.32 0 2 0 C1.1875 2.4375 1.1875 2.4375 0 5 C-0.99 5.33 -1.98 5.66 -3 6 C-3.66 5.67 -4.32 5.34 -5 5 C-5 4.34 -5 3.68 -5 3 C-4.360625 2.87625 -3.72125 2.7525 -3.0625 2.625 C-2.0415625 2.315625 -2.0415625 2.315625 -1 2 C-0.67 1.34 -0.34 0.68 0 0 Z" transform="translate(280,92)"/><path fill="#BFAC79" d="M0 0 C0.66 1.32 1.32 2.64 2 4 C0.03533587 5.06775224 -1.96855359 6.06553465 -4 7 C-4.66 6.67 -5.32 6.34 -6 6 C-4 4 -2 2 0 0 Z" transform="translate(287,77)"/><path fill="#A3915C" d="M0 0 C1.32 0.99 2.64 1.98 4 3 C3.071875 3.1546875 3.071875 3.1546875 2.125 3.3125 C-0.36526484 3.87525373 -0.36526484 3.87525373 -2 7 C-2.33 5.68 -2.66 4.36 -3 3 C-2.34 3 -1.68 3 -1 3 C-0.67 2.01 -0.34 1.02 0 0 Z" transform="translate(241,238)"/><path fill="#A89861" d="M0 0 C1.15941038 3.47823115 0.70820884 5.45895578 0 9 C-0.66 9 -1.32 9 -2 9 C-2 6.36 -2 3.72 -2 1 C-1.34 0.67 -0.68 0.34 0 0 Z" transform="translate(237,219)"/><path fill="#A4935E" d="M0 0 C0.66 0 1.32 0 2 0 C2.66 1.65 3.32 3.3 4 5 C2.35 5 0.7 5 -1 5 C-1 2 -1 2 0 0 Z" transform="translate(284,84)"/><path fill="#000" transform="translate(0,0)"/><path fill="#000" transform="translate(0,0)"/><path fill="#000" transform="translate(0,0)"/><path fill="#000" transform="translate(0,0)"/><path fill="#000" transform="translate(0,0)"/><path fill="#000" transform="translate(0,0)"/><path fill="#000" transform="translate(0,0)"/><path fill="#000" transform="translate(0,0)"/><path fill="#000" transform="translate(0,0)"/><path fill="#000" transform="translate(0,0)"/><path fill="#000" transform="translate(0,0)"/><path fill="#000" transform="translate(0,0)"/><path fill="#000" transform="translate(0,0)"/><path fill="#000" transform="translate(0,0)"/><path fill="#000" transform="translate(0,0)"/><path fill="#000" transform="translate(0,0)"/><path fill="#000" transform="translate(0,0)"/><path fill="#000" transform="translate(0,0)"/><path fill="#000" transform="translate(0,0)"/><path fill="#000" transform="translate(0,0)"/><path fill="#000" transform="translate(0,0)"/><path fill="#000" transform="translate(0,0)"/><path fill="#000" transform="translate(0,0)"/><path fill="#000" transform="translate(0,0)"/><path fill="#000" transform="translate(0,0)"/><path fill="#000" transform="translate(0,0)"/><path fill="#000" transform="translate(0,0)"/><path fill="#000" transform="translate(0,0)"/><path fill="#000" transform="translate(0,0)"/><path fill="#000" transform="translate(0,0)"/><path fill="#000" transform="translate(0,0)"/></svg>