<svg width="28" height="40" viewBox="0 0 28 40" fill="none" xmlns="http://www.w3.org/2000/svg">
<path d="M5.049 31.608C5.049 31.926 4.974 32.226 4.824 32.508C4.674 32.79 4.434 33.021 4.104 33.201C3.774 33.375 3.351 33.462 2.835 33.462H1.701V36H0.675V29.745H2.835C3.315 29.745 3.72 29.829 4.05 29.997C4.386 30.159 4.635 30.381 4.797 30.663C4.965 30.945 5.049 31.26 5.049 31.608ZM2.835 32.625C3.225 32.625 3.516 32.538 3.708 32.364C3.9 32.184 3.996 31.932 3.996 31.608C3.996 30.924 3.609 30.582 2.835 30.582H1.701V32.625H2.835ZM7.05354 31.761C7.20354 31.509 7.40154 31.314 7.64754 31.176C7.89954 31.032 8.19654 30.96 8.53854 30.96V32.022H8.27754C7.87554 32.022 7.56954 32.124 7.35954 32.328C7.15554 32.532 7.05354 32.886 7.05354 33.39V36H6.02754V31.041H7.05354V31.761ZM11.6326 36.081C11.1646 36.081 10.7416 35.976 10.3636 35.766C9.98564 35.55 9.68864 35.25 9.47264 34.866C9.25664 34.476 9.14864 34.026 9.14864 33.516C9.14864 33.012 9.25964 32.565 9.48164 32.175C9.70364 31.785 10.0066 31.485 10.3906 31.275C10.7746 31.065 11.2036 30.96 11.6776 30.96C12.1516 30.96 12.5806 31.065 12.9646 31.275C13.3486 31.485 13.6516 31.785 13.8736 32.175C14.0956 32.565 14.2066 33.012 14.2066 33.516C14.2066 34.02 14.0926 34.467 13.8646 34.857C13.6366 35.247 13.3246 35.55 12.9286 35.766C12.5386 35.976 12.1066 36.081 11.6326 36.081ZM11.6326 35.19C11.8966 35.19 12.1426 35.127 12.3706 35.001C12.6046 34.875 12.7936 34.686 12.9376 34.434C13.0816 34.182 13.1536 33.876 13.1536 33.516C13.1536 33.156 13.0846 32.853 12.9466 32.607C12.8086 32.355 12.6256 32.166 12.3976 32.04C12.1696 31.914 11.9236 31.851 11.6596 31.851C11.3956 31.851 11.1496 31.914 10.9216 32.04C10.6996 32.166 10.5226 32.355 10.3906 32.607C10.2586 32.853 10.1926 33.156 10.1926 33.516C10.1926 34.05 10.3276 34.464 10.5976 34.758C10.8736 35.046 11.2186 35.19 11.6326 35.19ZM17.2999 31.878H16.3819V36H15.3469V31.878H14.7619V31.041H15.3469V30.69C15.3469 30.12 15.4969 29.706 15.7969 29.448C16.1029 29.184 16.5799 29.052 17.2279 29.052V29.907C16.9159 29.907 16.6969 29.967 16.5709 30.087C16.4449 30.201 16.3819 30.402 16.3819 30.69V31.041H17.2999V31.878ZM18.7312 30.384C18.5452 30.384 18.3892 30.321 18.2632 30.195C18.1372 30.069 18.0742 29.913 18.0742 29.727C18.0742 29.541 18.1372 29.385 18.2632 29.259C18.3892 29.133 18.5452 29.07 18.7312 29.07C18.9112 29.07 19.0642 29.133 19.1902 29.259C19.3162 29.385 19.3792 29.541 19.3792 29.727C19.3792 29.913 19.3162 30.069 19.1902 30.195C19.0642 30.321 18.9112 30.384 18.7312 30.384ZM19.2352 31.041V36H18.2092V31.041H19.2352ZM21.6082 29.34V36H20.5822V29.34H21.6082ZM27.5003 33.399C27.5003 33.585 27.4883 33.753 27.4643 33.903H23.6753C23.7053 34.299 23.8523 34.617 24.1163 34.857C24.3803 35.097 24.7043 35.217 25.0883 35.217C25.6403 35.217 26.0303 34.986 26.2583 34.524H27.3653C27.2153 34.98 26.9423 35.355 26.5463 35.649C26.1563 35.937 25.6703 36.081 25.0883 36.081C24.6143 36.081 24.1883 35.976 23.8103 35.766C23.4383 35.55 23.1443 35.25 22.9283 34.866C22.7183 34.476 22.6133 34.026 22.6133 33.516C22.6133 33.006 22.7153 32.559 22.9193 32.175C23.1293 31.785 23.4203 31.485 23.7923 31.275C24.1703 31.065 24.6023 30.96 25.0883 30.96C25.5563 30.96 25.9733 31.062 26.3393 31.266C26.7053 31.47 26.9903 31.758 27.1943 32.13C27.3983 32.496 27.5003 32.919 27.5003 33.399ZM26.4293 33.075C26.4233 32.697 26.2883 32.394 26.0243 32.166C25.7603 31.938 25.4333 31.824 25.0433 31.824C24.6893 31.824 24.3863 31.938 24.1343 32.166C23.8823 32.388 23.7323 32.691 23.6843 33.075H26.4293Z" fill="white"/>
<path fill-rule="evenodd" clip-rule="evenodd" d="M16.0043 2C13.0703 2 10.6918 4.38864 10.6918 7.33517C10.6918 10.2817 13.0703 12.6703 16.0043 12.6703C18.9383 12.6703 21.3168 10.2817 21.3168 7.33517C21.3168 4.38864 18.9383 2 16.0043 2ZM16.0043 3.44767C18.1422 3.44767 19.8753 5.18816 19.8753 7.33517C19.8753 9.48218 18.1422 11.2227 16.0043 11.2227C13.8664 11.2227 12.1333 9.48218 12.1333 7.33517C12.1333 5.18816 13.8664 3.44767 16.0043 3.44767ZM13.83 14.8209C13.0523 14.8749 12.2662 14.9859 11.4908 15.1521C9.99418 15.4604 8.79685 16.0763 8.28724 17.0999C8.09503 17.5002 7.99839 17.9288 8.00002 18.3627C7.99944 18.7935 8.0953 19.2227 8.28062 19.6153C8.76994 20.6271 9.8278 21.1997 11.2562 21.5171L11.5121 21.5705C12.2665 21.7407 13.0528 21.8553 13.8445 21.909C13.9119 21.9288 14.0726 21.9472 14.248 21.9561L14.3922 21.9615C14.4664 21.9633 14.5506 21.9637 14.676 21.9637C15.8138 22.0263 16.9934 22.0081 18.1675 21.9081C18.7932 21.8653 19.4231 21.7835 20.0477 21.6636L20.5151 21.5666C22.0576 21.2623 23.2126 20.6836 23.7186 19.6164C24.0937 18.8241 24.0937 17.9047 23.7188 17.1127C23.214 16.0483 22.0737 15.4744 20.5034 15.1509C19.8873 15.0194 19.2612 14.922 18.6307 14.8599L18.1697 14.8209C16.7259 14.6935 15.2738 14.6935 13.83 14.8209ZM18.0436 16.263L18.0562 16.264C18.7799 16.3149 19.4991 16.4165 20.2087 16.568C21.3751 16.8083 22.1667 17.2067 22.4171 17.7348C22.6057 18.133 22.6057 18.5958 22.4169 18.9944C22.1829 19.4879 21.472 19.8691 20.4445 20.1021L20.2195 20.1498C19.496 20.3112 18.7791 20.4152 18.0576 20.4647C16.9379 20.5599 15.8249 20.5771 14.7148 20.5171L14.3212 20.5103C14.2119 20.5048 14.1198 20.4942 14.0345 20.4771C13.3587 20.4261 12.7507 20.3454 12.1603 20.2283L11.8078 20.1537C10.6377 19.9244 9.83915 19.5243 9.58024 18.989C9.48964 18.797 9.44125 18.5803 9.44154 18.3609C9.44073 18.1428 9.48848 17.931 9.58118 17.7379C9.83293 17.2324 10.6792 16.7971 11.7861 16.569C12.5007 16.4159 13.2196 16.3144 13.9429 16.264C15.316 16.143 16.6837 16.143 18.0436 16.263Z" fill="white"/>
</svg>
