<svg width="26" height="24" viewBox="0 0 26 24" fill="none" xmlns="http://www.w3.org/2000/svg">
<path d="M10.4855 14.8213C12.0255 14.6939 13.5744 14.6939 15.1144 14.8213L15.6066 14.8604C16.279 14.9225 16.9466 15.0199 17.6037 15.1514C19.2786 15.4749 20.495 16.0488 21.0333 17.1133C21.433 17.905 21.4332 18.8242 21.0333 19.6162C20.4935 20.6831 19.2614 21.2621 17.6164 21.5664L17.1173 21.6641C16.4513 21.7839 15.7796 21.8654 15.1124 21.9082C13.8601 22.0082 12.6015 22.0265 11.3878 21.9639C11.2541 21.9639 11.1642 21.9636 11.0851 21.9619L10.9308 21.9561C10.7442 21.9471 10.5732 21.9289 10.5011 21.9092C9.65675 21.8554 8.81747 21.7405 8.01284 21.5703L7.74038 21.5176C6.21687 21.2002 5.08857 20.6268 4.56655 19.6152C4.369 19.2229 4.26625 18.7938 4.26675 18.3633C4.26501 17.9295 4.36847 17.4998 4.57339 17.0996C5.11711 16.0763 6.39427 15.4606 7.99038 15.1523C8.81744 14.9862 9.65597 14.8753 10.4855 14.8213ZM14.9796 16.2637C13.5292 16.1437 12.0702 16.1436 10.6056 16.2646C9.83419 16.315 9.06704 16.4162 8.30483 16.5693C7.12442 16.7974 6.22176 17.2329 5.95327 17.7383C5.85456 17.9313 5.80397 18.1434 5.80483 18.3613C5.80461 18.5805 5.85574 18.7974 5.95229 18.9893C6.22864 19.5244 7.0805 19.925 8.32827 20.1543L8.70425 20.2285C9.33391 20.3455 9.98259 20.4265 10.7033 20.4775C10.7942 20.4947 10.8926 20.5052 11.0089 20.5107L11.4289 20.5176C12.613 20.5776 13.801 20.5601 14.9953 20.4648C15.7648 20.4154 16.5294 20.3118 17.3009 20.1504L17.5412 20.1025C18.6368 19.8696 19.3949 19.4874 19.6447 18.9941C19.8458 18.5958 19.8455 18.1334 19.6447 17.7354C19.3776 17.2072 18.5334 16.8087 17.2892 16.5684C16.5324 16.4169 15.7652 16.3156 14.9933 16.2646L14.9796 16.2637ZM12.8048 2C15.9342 2.00015 18.4707 4.38862 18.4708 7.33496C18.4708 10.2814 15.9343 12.6698 12.8048 12.6699C9.67526 12.6699 7.13784 10.2815 7.13784 7.33496C7.13796 4.38856 9.67534 2.00007 12.8048 2ZM12.8048 3.44727C10.5245 3.44733 8.67605 5.18809 8.67592 7.33496C8.67592 9.48193 10.5245 11.2226 12.8048 11.2227C15.0851 11.2225 16.9337 9.48188 16.9337 7.33496C16.9336 5.18814 15.085 3.44742 12.8048 3.44727Z" fill="white"/>
</svg>
