<svg width="20" height="20" viewBox="0 0 20 20" fill="none" xmlns="http://www.w3.org/2000/svg">
<g clip-path="url(#clip0_218_39)">
<path d="M18.809 8.21621L2.67252 1.5205C1.99272 1.23839 1.22471 1.36249 0.668264 1.84421C0.111818 2.32601 -0.120916 3.06836 0.0609589 3.78152L1.49725 9.41402H8.52951C8.85311 9.41402 9.11549 9.67637 9.11549 10C9.11549 10.3236 8.85315 10.586 8.52951 10.586H1.49725L0.0609589 16.2184C-0.120916 16.9316 0.111779 17.674 0.668264 18.1558C1.22584 18.6384 1.99393 18.761 2.67256 18.4795L18.809 11.7838C19.5437 11.4789 20.0001 10.7954 20.0001 10C20.0001 9.20457 19.5437 8.52102 18.809 8.21621Z" fill="white"/>
</g>
<defs>
<clipPath id="clip0_218_39">
<rect width="20" height="20" fill="white"/>
</clipPath>
</defs>
</svg>
