<svg xmlns="http://www.w3.org/2000/svg" width="129" height="30" fill="none" viewBox="0 0 129 30"><path fill="#B49C5D" d="M0 29L128.5 26V30H0V29Z"/><path fill="#fff" d="M22.08 22.14C21.1467 22.14 20.3067 21.98 19.56 21.66C18.8133 21.3267 18.2267 20.86 17.8 20.26C17.3733 19.66 17.16 18.96 17.16 18.16H19.6C19.6533 18.76 19.8867 19.2533 20.3 19.64C20.7267 20.0267 21.32 20.22 22.08 20.22C22.8667 20.22 23.48 20.0333 23.92 19.66C24.36 19.2733 24.58 18.78 24.58 18.18C24.58 17.7133 24.44 17.3333 24.16 17.04C23.8933 16.7467 23.5533 16.52 23.14 16.36C22.74 16.2 22.18 16.0267 21.46 15.84C20.5533 15.6 19.8133 15.36 19.24 15.12C18.68 14.8667 18.2 14.48 17.8 13.96C17.4 13.44 17.2 12.7467 17.2 11.88C17.2 11.08 17.4 10.38 17.8 9.78C18.2 9.18 18.76 8.72 19.48 8.4C20.2 8.08 21.0333 7.92 21.98 7.92C23.3267 7.92 24.4267 8.26 25.28 8.94C26.1467 9.60667 26.6267 10.5267 26.72 11.7H24.2C24.16 11.1933 23.92 10.76 23.48 10.4C23.04 10.04 22.46 9.86 21.74 9.86C21.0867 9.86 20.5533 10.0267 20.14 10.36C19.7267 10.6933 19.52 11.1733 19.52 11.8C19.52 12.2267 19.6467 12.58 19.9 12.86C20.1667 13.1267 20.5 13.34 20.9 13.5C21.3 13.66 21.8467 13.8333 22.54 14.02C23.46 14.2733 24.2067 14.5267 24.78 14.78C25.3667 15.0333 25.86 15.4267 26.26 15.96C26.6733 16.48 26.88 17.18 26.88 18.06C26.88 18.7667 26.6867 19.4333 26.3 20.06C25.9267 20.6867 25.3733 21.1933 24.64 21.58C23.92 21.9533 23.0667 22.14 22.08 22.14ZM30.7303 9.52C30.317 9.52 29.9703 9.38 29.6903 9.1C29.4103 8.82 29.2703 8.47333 29.2703 8.06C29.2703 7.64667 29.4103 7.3 29.6903 7.02C29.9703 6.74 30.317 6.6 30.7303 6.6C31.1303 6.6 31.4703 6.74 31.7503 7.02C32.0303 7.3 32.1703 7.64667 32.1703 8.06C32.1703 8.47333 32.0303 8.82 31.7503 9.1C31.4703 9.38 31.1303 9.52 30.7303 9.52ZM31.8503 10.98V22H29.5703V10.98H31.8503ZM40.4038 10.8C41.2704 10.8 42.0438 10.98 42.7238 11.34C43.4171 11.7 43.9571 12.2333 44.3438 12.94C44.7304 13.6467 44.9238 14.5 44.9238 15.5V22H42.6638V15.84C42.6638 14.8533 42.4171 14.1 41.9238 13.58C41.4304 13.0467 40.7571 12.78 39.9038 12.78C39.0504 12.78 38.3704 13.0467 37.8638 13.58C37.3704 14.1 37.1238 14.8533 37.1238 15.84V22H34.8438V10.98H37.1238V12.24C37.4971 11.7867 37.9704 11.4333 38.5438 11.18C39.1304 10.9267 39.7504 10.8 40.4038 10.8ZM57.932 16.22C57.932 16.6333 57.9054 17.0067 57.852 17.34H49.432C49.4987 18.22 49.8254 18.9267 50.412 19.46C50.9987 19.9933 51.7187 20.26 52.572 20.26C53.7987 20.26 54.6654 19.7467 55.172 18.72H57.632C57.2987 19.7333 56.692 20.5667 55.812 21.22C54.9454 21.86 53.8654 22.18 52.572 22.18C51.5187 22.18 50.572 21.9467 49.732 21.48C48.9054 21 48.252 20.3333 47.772 19.48C47.3054 18.6133 47.072 17.6133 47.072 16.48C47.072 15.3467 47.2987 14.3533 47.752 13.5C48.2187 12.6333 48.8654 11.9667 49.692 11.5C50.532 11.0333 51.492 10.8 52.572 10.8C53.612 10.8 54.5387 11.0267 55.352 11.48C56.1654 11.9333 56.7987 12.5733 57.252 13.4C57.7054 14.2133 57.932 15.1533 57.932 16.22ZM55.552 15.5C55.5387 14.66 55.2387 13.9867 54.652 13.48C54.0654 12.9733 53.3387 12.72 52.472 12.72C51.6854 12.72 51.012 12.9733 50.452 13.48C49.892 13.9733 49.5587 14.6467 49.452 15.5H55.552ZM73.5158 10.8C74.3824 10.8 75.1558 10.98 75.8358 11.34C76.5291 11.7 77.0691 12.2333 77.4558 12.94C77.8558 13.6467 78.0558 14.5 78.0558 15.5V22H75.7958V15.84C75.7958 14.8533 75.5491 14.1 75.0558 13.58C74.5624 13.0467 73.8891 12.78 73.0358 12.78C72.1824 12.78 71.5024 13.0467 70.9958 13.58C70.5024 14.1 70.2558 14.8533 70.2558 15.84V22H67.9958V15.84C67.9958 14.8533 67.7491 14.1 67.2558 13.58C66.7624 13.0467 66.0891 12.78 65.2358 12.78C64.3824 12.78 63.7024 13.0467 63.1958 13.58C62.7024 14.1 62.4558 14.8533 62.4558 15.84V22H60.1758V10.98H62.4558V12.24C62.8291 11.7867 63.3024 11.4333 63.8758 11.18C64.4491 10.9267 65.0624 10.8 65.7158 10.8C66.5958 10.8 67.3824 10.9867 68.0758 11.36C68.7691 11.7333 69.3024 12.2733 69.6758 12.98C70.0091 12.3133 70.5291 11.7867 71.2358 11.4C71.9424 11 72.7024 10.8 73.5158 10.8ZM80.197 16.44C80.197 15.3333 80.4237 14.3533 80.877 13.5C81.3437 12.6467 81.9704 11.9867 82.757 11.52C83.557 11.04 84.437 10.8 85.397 10.8C86.2637 10.8 87.017 10.9733 87.657 11.32C88.3104 11.6533 88.8304 12.0733 89.217 12.58V10.98H91.517V22H89.217V20.36C88.8304 20.88 88.3037 21.3133 87.637 21.66C86.9704 22.0067 86.2104 22.18 85.357 22.18C84.4104 22.18 83.5437 21.94 82.757 21.46C81.9704 20.9667 81.3437 20.2867 80.877 19.42C80.4237 18.54 80.197 17.5467 80.197 16.44ZM89.217 16.48C89.217 15.72 89.057 15.06 88.737 14.5C88.4304 13.94 88.0237 13.5133 87.517 13.22C87.0104 12.9267 86.4637 12.78 85.877 12.78C85.2904 12.78 84.7437 12.9267 84.237 13.22C83.7304 13.5 83.317 13.92 82.997 14.48C82.6904 15.0267 82.537 15.68 82.537 16.44C82.537 17.2 82.6904 17.8667 82.997 18.44C83.317 19.0133 83.7304 19.4533 84.237 19.76C84.757 20.0533 85.3037 20.2 85.877 20.2C86.4637 20.2 87.0104 20.0533 87.517 19.76C88.0237 19.4667 88.4304 19.04 88.737 18.48C89.057 17.9067 89.217 17.24 89.217 16.48ZM97.1717 12.84V18.94C97.1717 19.3533 97.2651 19.6533 97.4517 19.84C97.6517 20.0133 97.9851 20.1 98.4517 20.1H99.8517V22H98.0517C97.0251 22 96.2384 21.76 95.6917 21.28C95.1451 20.8 94.8717 20.02 94.8717 18.94V12.84H93.5717V10.98H94.8717V8.24H97.1717V10.98H99.8517V12.84H97.1717ZM112.053 16.22C112.053 16.6333 112.026 17.0067 111.973 17.34H103.553C103.62 18.22 103.946 18.9267 104.533 19.46C105.12 19.9933 105.84 20.26 106.693 20.26C107.92 20.26 108.786 19.7467 109.293 18.72H111.753C111.42 19.7333 110.813 20.5667 109.933 21.22C109.066 21.86 107.986 22.18 106.693 22.18C105.64 22.18 104.693 21.9467 103.853 21.48C103.026 21 102.373 20.3333 101.893 19.48C101.426 18.6133 101.193 17.6133 101.193 16.48C101.193 15.3467 101.42 14.3533 101.873 13.5C102.34 12.6333 102.986 11.9667 103.813 11.5C104.653 11.0333 105.613 10.8 106.693 10.8C107.733 10.8 108.66 11.0267 109.473 11.48C110.286 11.9333 110.92 12.5733 111.373 13.4C111.826 14.2133 112.053 15.1533 112.053 16.22ZM109.673 15.5C109.66 14.66 109.36 13.9867 108.773 13.48C108.186 12.9733 107.46 12.72 106.593 12.72C105.806 12.72 105.133 12.9733 104.573 13.48C104.013 13.9733 103.68 14.6467 103.573 15.5H109.673Z"/></svg>